<svg xmlns="http://www.w3.org/2000/svg" xmlns:xlink="http://www.w3.org/1999/xlink"><defs><path id="a" d="M124.98 2003.07c0-54 26-91 71.25-91s71.25 37 71.25 91-26 91-71.25 91-71.25-37-71.25-91zm102.5 0c0-33.75-10.25-52-31.25-52s-31.25 18.25-31.25 52 10.25 52 31.25 52 31.25-18.25 31.25-52zm125.75-87.5v175h-40v-132.75l-31 8.5-9.75-34.25 45.75-16.5z"/><clipPath id="b"><use xlink:href="#a"/></clipPath><style>.cls-1{fill:#db285e}.cls-2{fill:#fafafa}</style></defs><symbol id="icon-01" viewBox="0 0 232 185"><use fill-opacity="0" stroke-miterlimit="50" stroke-width="4" clip-path="url(&quot;#b&quot;)" xlink:href="#a" opacity=".1" transform="translate(-123 -1911)"/></symbol><symbol id="icon-02" viewBox="0 0 279 187"><path fill-rule="evenodd" stroke-width="2" opacity=".102" d="M276.423 180.372h-122.5v-32.5l58-61.249c11.75-12.751 16.75-19.25 16.75-27 0-8.75-5.75-14.501-15.5-14.501-10.25 0-18.25 6.001-23.5 18.251l-38.5-21.5c11.25-26.251 34.75-40.251 61.5-40.251 16.75 0 31 5.001 42.75 15 12 9.751 18 23.25 18 40.501 0 20.249-9.75 36.249-28 55.25l-23.75 24.749h54.75v43.25zm-202.748 3.75c-22.75 0-40.75-8.25-53.5-24.75-12.75-16.749-19-38.75-19-66.499 0-27.751 6.25-49.75 19-66.251 12.75-16.75 30.75-25 53.5-25s40.5 8.25 53.25 25c12.75 16.501 19.25 38.5 19.25 66.251 0 27.749-6.5 49.75-19.25 66.499-12.75 16.5-30.5 24.75-53.25 24.75zm0-139c-18.5 0-27.75 16-27.75 47.751 0 31.75 9.25 47.749 27.75 47.749s27.75-15.999 27.75-47.749c0-31.751-9.25-47.751-27.75-47.751z"/></symbol><symbol id="icon-03" viewBox="0 0 279 186"><path fill-rule="evenodd" stroke-width="2" opacity=".102" d="M276.688 124.843c0 18.751-6.25 33.251-18.5 43.501s-27.5 15.249-45.75 15.249c-29 0-53-13.498-63-39.499l39-22.249c3.75 12.249 11.75 18.248 24 18.248 12.75 0 19.75-6.499 19.75-16.499s-7-16.25-19.75-16.25h-9.5l-17.25-25.501 28-34.249h-58.75V4.844h113.75v35.249l-29.25 36.001c22.25 7 37.25 24.75 37.25 48.749zm-202.999 58.75c-22.75 0-40.75-8.249-53.5-24.75-12.75-16.749-19-38.749-19-66.499 0-27.75 6.25-49.75 19-66.25 12.75-16.75 30.75-25 53.5-25s40.5 8.25 53.25 25c12.75 16.5 19.25 38.5 19.25 66.25s-6.5 49.75-19.25 66.499c-12.75 16.501-30.5 24.75-53.25 24.75zm0-139c-18.5 0-27.75 16.001-27.75 47.751 0 31.75 9.25 47.749 27.75 47.749s27.75-15.999 27.75-47.749-9.25-47.751-27.75-47.751z"/></symbol><symbol id="icon-04" viewBox="0 0 299 187"><path fill-rule="evenodd" stroke-width="2" opacity=".102" d="M278.647 153.64v26.751h-44.5V153.64h-76.75v-40.749l52.25-107.499h49.5l-52.75 107.499h27.75V81.392h44.5v31.499h17.5v40.749h-17.5zM73.653 184.141c-22.75 0-40.75-8.25-53.5-24.749-12.75-16.751-19-38.751-19-66.5 0-27.751 6.25-49.75 19-66.25 12.75-16.751 30.75-25 53.5-25s40.5 8.249 53.25 25c12.75 16.5 19.25 38.499 19.25 66.25 0 27.749-6.5 49.749-19.25 66.5-12.75 16.499-30.5 24.749-53.25 24.749zm0-138.999c-18.5 0-27.75 15.999-27.75 47.75 0 31.749 9.25 47.75 27.75 47.75s27.75-16.001 27.75-47.75c0-31.751-9.25-47.75-27.75-47.75z"/></symbol><symbol id="icon-05" viewBox="0 0 286 187"><path fill-rule="evenodd" stroke-width="2" opacity=".102" d="M211.478 67.07h12.5c17.25 0 31.5 5 42.75 15 11.5 10.001 17.25 24.25 17.25 42.501 0 18.999-6.25 33.749-18.5 44.25-12.25 10.25-27.75 15.5-46 15.5-30.75 0-54.5-13.25-64.75-39.5l39-22.25c3.75 12.249 12.25 18.25 25.75 18.25 12.75 0 19.75-6.251 19.75-16.25 0-10.25-7.25-16.251-19-16.251h-56l7.25-102.75h103v42.75h-61.75l-1.25 18.75zm-137.5 117.251c-22.75 0-40.75-8.25-53.5-24.751-12.75-16.749-19-38.749-19-66.499 0-27.751 6.25-49.751 19-66.251 12.75-16.75 30.75-25 53.5-25s40.5 8.25 53.25 25c12.75 16.5 19.25 38.5 19.25 66.251 0 27.75-6.5 49.75-19.25 66.499-12.75 16.501-30.5 24.751-53.25 24.751zm0-139.001c-18.5 0-27.75 16-27.75 47.751 0 31.749 9.25 47.75 27.75 47.75s27.75-16.001 27.75-47.75c0-31.751-9.25-47.751-27.75-47.751z"/></symbol><symbol id="icon-06" viewBox="0 0 293 187"><path fill-rule="evenodd" stroke-width="2" opacity=".102" d="M275.474 81.32c10.25 11.001 15.25 24.751 15.25 41.25 0 18.25-6 33-18.25 44.501-12.25 11.499-28.25 17.249-48 17.249s-35.75-5.75-48-17.249c-12.25-11.501-18.25-26.251-18.25-44.501 0-13.75 3.75-25.749 11-36.251l51.75-80.749h50.75l-37 55.75c17 2.251 30.5 8.751 40.75 20zm-35.5 25.751c-4-3.751-9.25-5.501-15.5-5.501s-11.5 1.75-15.5 5.501c-4 3.75-6 8.75-6 15.499 0 13.251 8.75 20.749 21.5 20.749 12.25 0 21.5-7.749 21.5-20.749 0-6.749-2-11.749-6-15.499zM74.479 184.32c-22.75 0-40.75-8.249-53.5-24.749-12.75-16.751-19-38.75-19-66.501 0-27.75 6.25-49.749 19-66.251 12.75-16.748 30.75-24.999 53.5-24.999s40.5 8.251 53.25 24.999c12.75 16.502 19.25 38.501 19.25 66.251 0 27.751-6.5 49.75-19.25 66.501-12.75 16.5-30.5 24.749-53.25 24.749zm0-139c-18.5 0-27.75 16-27.75 47.75s9.25 47.75 27.75 47.75 27.75-16 27.75-47.75-9.25-47.75-27.75-47.75z"/></symbol><symbol id="icon-facebook" viewBox="0 0 512 512"><title>facebook</title><path class="cls-1" d="M256 0C114.6 0 0 106.1 0 237c0 74.6 37.2 141.1 95.4 184.6V512l87.2-47.8a276.72 276.72 0 0 0 73.4 9.9c141.4 0 256-106.1 256-237S397.4 0 256 0z"/><path class="cls-2" d="M281.4 319.2l-65.1-69.5-127.2 69.5L229 170.7l66.7 69.5 125.7-69.5-140 148.5z"/></symbol><symbol id="icon-insta" viewBox="0 0 512 512"><style>.st0{fill:#db285e}.st1{fill:#fff}</style><circle class="st0" cx="256.5" cy="256.8" r="256" id="Layer_2"/><g id="Layer_1"><path class="st1" d="M323.5 88.6h-136c-55.3 0-100.2 45-100.2 100.2v136c0 55.3 45 100.2 100.2 100.2h136c55.3 0 100.2-45 100.2-100.2v-136c0-55.3-44.9-100.2-100.2-100.2zm66.4 236.2c0 36.7-29.7 66.4-66.4 66.4h-136c-36.7 0-66.4-29.7-66.4-66.4v-136c0-36.7 29.7-66.4 66.4-66.4h136c36.7 0 66.4 29.7 66.4 66.4v136z"/><path class="st1" d="M255.5 169.8c-48 0-87 39-87 87s39 87 87 87 87-39 87-87-39-87-87-87zm0 140.2c-29.4 0-53.2-23.8-53.2-53.2s23.8-53.2 53.2-53.2 53.2 23.8 53.2 53.2c0 29.4-23.8 53.2-53.2 53.2z"/></g></symbol><symbol id="icon-skype" viewBox="0 0 512 512"><style>.st0{fill:#db285e}.st1{fill:#fff}</style><circle class="st0" cx="256.5" cy="256" r="256" id="Layer_1"/><path class="st1" d="M416.5 282.6c-5.5-7.6-8.1-17-8.1-26.4v-.2c0-83.9-68-152-152-152-18.4 0-36 3.3-52.2 9.2-8.8 3.2-18.5 3.9-27.5 1.3-8-2.2-16.5-3.2-25.3-2.6-37.1 2.6-67 33-68.9 70.1-.9 17.7 4.4 34.2 13.9 47.4 5.5 7.6 8.1 17 8.1 26.4v.2c0 83.9 68 152 152 152 18.4 0 36-3.3 52.2-9.2 8.8-3.2 18.5-3.9 27.5-1.3 8 2.3 16.5 3.2 25.3 2.6 37.1-2.6 67-33 68.9-70.1 1-17.8-4.3-34.2-13.9-47.4zM262 228.8c30.6 7.3 76.9 18.3 76.9 69.3 0 25.1-12.4 44.3-34.8 54-16 6.9-34.2 7.8-49.8 7.8-48.1 0-78.4-37.4-79.7-39-7.9-9.9-6.2-24.3 3.6-32.1 9.9-7.9 24.3-6.2 32.1 3.6.1.1 18.2 20.9 43.9 21.7 31 1 38-8.2 38.9-16.1 1.1-9.6-7.4-16.6-41.8-24.8-29.1-6.9-73.2-17.4-73.2-64.4 0-14.6 5.9-62.4 82.5-62.4 48.3 0 76.9 38.1 78.1 39.7 7.5 10.2 5.3 24.5-4.9 32-10.1 7.4-24.3 5.3-31.8-4.7-.5-.7-16.9-18.9-41.3-21.2-18.5-1.8-36.8 4.9-36.8 14.8.1 10.5 5.3 14 38.1 21.8z" id="Layer_2"/></symbol><symbol id="icon-slack" viewBox="0 0 512 512"><style>.st0{fill:#db285e}.st1{fill:#fff}</style><circle class="st0" cx="256" cy="256.4" r="256" id="Layer_2"/><g id="Capa_1"><path class="st1" d="M308.7 100.7c-5.4-16.6-23.2-25.7-39.9-20.3-16.6 5.4-25.7 23.2-20.3 39.9l81.8 251.6c5.6 15.5 22.4 24.2 38.5 19.6 16.8-4.8 27-22.7 21.7-39.1-.3-.7-81.8-251.7-81.8-251.7z"/><path class="st1" d="M182 141.9c-5.4-16.6-23.3-25.7-39.9-20.3-16.6 5.4-25.7 23.2-20.3 39.9L203.6 413c5.6 15.5 22.4 24.2 38.5 19.6 16.8-4.8 27-22.7 21.7-39.1-.3-.6-81.8-251.6-81.8-251.6z"/><path class="st1" d="M411.6 309.1c16.6-5.4 25.7-23.2 20.3-39.9-5.4-16.6-23.2-25.7-39.9-20.3l-251.6 81.8c-15.5 5.6-24.2 22.4-19.6 38.5 4.8 16.8 22.7 27 39.1 21.7.7-.3 251.7-81.8 251.7-81.8z"/><path class="st1" d="M192.9 380.2c16.4-5.3 37.5-12.2 60.1-19.5-5.3-16.4-12.2-37.5-19.6-60.1L173.3 320l19.6 60.2z"/><path class="st1" d="M319.6 339c22.7-7.4 43.9-14.2 60.1-19.5-5.3-16.4-12.2-37.5-19.5-60.2l-60.1 19.5 19.5 60.2z"/><path class="st1" d="M370.4 182.4c16.6-5.4 25.7-23.2 20.3-39.9s-23.2-25.7-39.9-20.3L99.3 204c-15.5 5.6-24.3 22.4-19.6 38.5 4.8 16.8 22.7 27 39.1 21.7.6-.3 251.6-81.8 251.6-81.8z"/><path class="st1" d="M151.7 253.4c16.4-5.3 37.5-12.2 60.2-19.6-7.4-22.7-14.2-43.8-19.5-60.1l-60.1 19.5 19.4 60.2z"/><path class="st1" d="M278.4 212.3c22.7-7.4 43.9-14.2 60.2-19.5-7.4-22.7-14.3-43.9-19.5-60.2l-60.2 19.5 19.5 60.2z"/></g></symbol><symbol id="icon-telegram" viewBox="0 0 512 512"><style>.st0{fill:#db285e}.st1{fill:#fcfcfc}.st2{fill:#d8d7da}</style><circle class="st0" cx="256" cy="256" r="256"/><path class="st1" d="M164.7 311.1l-82.6-41.3c-2.3-1.1-2.3-4.4 0-5.5l313.7-162.2c2.3-1.2 5 .8 4.5 3.4l-54 270c-.4 1.9-2.4 3-4.3 2.2l-73.4-31.5c-.9-.4-1.9-.3-2.7.1L171 399.1c-2.1 1.1-4.6-.3-4.6-2.7v-82.5c0-1.2-.7-2.2-1.7-2.8z"/><path class="st2" d="M200.3 339l-.5-82.4c0-.5.3-1 .7-1.3l133.9-81.8c1.5-.9 3.1 1.1 1.9 2.3L234.4 278.4c-.1.1-.2.2-.3.4l-17.4 34.9-13.5 26c-.8 1.3-2.9.8-2.9-.7z"/></symbol><symbol id="icon-viber" viewBox="0 0 512 512"><style>.st0{fill:#db285e}.st1{fill:#fff}</style><circle class="st0" cx="256.3" cy="256.2" r="256" id="Layer_1"/><g id="Layer_2"><path class="st1" d="M422.9 175.6l-.1-.4c-8.4-34-46.4-70.5-81.2-78.1l-.4-.1c-56.4-10.7-113.5-10.7-169.8 0l-.4.1c-34.8 7.6-72.8 44.1-81.2 78.1l-.1.4c-10.4 47.5-10.4 95.7 0 143.2l.1.4c8.1 32.6 43.2 67.4 76.7 77v38c0 13.7 16.7 20.5 26.3 10.6l38.5-40c8.3.5 16.7.7 25 .7 28.4 0 56.7-2.7 84.9-8.1l.4-.1c34.8-7.6 72.8-44.1 81.2-78.1l.1-.4c10.4-47.5 10.4-95.7 0-143.2zm-30.4 136.3c-5.6 22.2-34.4 49.8-57.3 54.9-30 5.7-60.2 8.1-90.3 7.3-.6 0-1.2.2-1.6.6-4.3 4.4-28.1 28.8-28.1 28.8l-29.9 30.7c-2.2 2.3-6 .7-6-2.4V369c0-1-.7-1.9-1.8-2.1-22.9-5.1-51.7-32.7-57.3-54.9-9.4-42.9-9.4-86.5 0-129.4 5.6-22.2 34.4-49.8 57.3-54.9 52.3-10 105.4-10 157.7 0 22.9 5.1 51.7 32.7 57.3 54.9 9.3 42.9 9.3 86.4 0 129.3z"/><path class="st1" d="M306.1 341c-3.5-1.1-6.9-1.8-10-3.1-32.3-13.4-62-30.7-85.5-57.1-13.4-15.1-23.8-32.1-32.7-50-4.2-8.5-7.7-17.4-11.3-26.2-3.3-8 1.6-16.3 6.7-22.4 4.8-5.7 10.9-10 17.6-13.2 5.2-2.5 10.3-1.1 14.1 3.4 8.2 9.5 15.8 19.6 21.9 30.6 3.8 6.8 2.7 15.1-4.1 19.7-1.7 1.1-3.2 2.4-4.7 3.7-1.4 1.1-2.6 2.2-3.6 3.7-1.7 2.8-1.8 6-.7 9 8.4 23.1 22.6 41 45.8 50.7 3.7 1.5 7.5 3.3 11.7 2.8 7.2-.8 9.5-8.7 14.5-12.8 4.9-4 11.2-4.1 16.5-.7 5.3 3.4 10.4 6.9 15.5 10.6 5 3.6 10 7.1 14.6 11.1 4.4 3.9 6 9 3.5 14.3-4.6 9.7-11.2 17.8-20.8 23-2.7 1.5-5.9 1.9-9 2.9-3.5-1.1 3.1-1 0 0z"/><path class="st1" d="M256.4 157.8c42.2 1.2 76.9 29.2 84.3 70.9 1.3 7.1 1.7 14.4 2.3 21.6.2 3-1.5 5.9-4.8 6-3.4 0-4.9-2.8-5.1-5.8-.4-6-.7-12-1.6-18-4.4-31.4-29.4-57.5-60.7-63-4.7-.8-9.5-1.1-14.3-1.6-3-.3-7-.5-7.6-4.2-.6-3.1 2.1-5.6 5.1-5.8.8-.1 1.6-.1 2.4-.1 42.2 1.2-.8 0 0 0z"/><path class="st1" d="M320.6 241c-.1.5-.1 1.8-.4 2.9-1.1 4.2-7.5 4.8-9 .5-.4-1.3-.5-2.7-.5-4.1 0-8.9-2-17.9-6.5-25.6-4.6-8-11.7-14.7-20-18.8-5-2.5-10.5-4-16-4.9-2.4-.4-4.8-.6-7.3-1-2.9-.4-4.5-2.3-4.4-5.2.1-2.7 2.1-4.7 5.1-4.5 9.7.5 19 2.6 27.7 7.2 17.5 9.3 27.5 23.9 30.4 43.5.1.9.3 1.8.4 2.7.2 2.2.3 4.4.5 7.3-.1.5-.2-2.9 0 0z"/><path class="st1" d="M294.3 239.9c-3.5.1-5.4-1.9-5.8-5.1-.3-2.3-.5-4.5-1-6.7-1.1-4.3-3.4-8.3-7-11-1.7-1.3-3.7-2.2-5.7-2.8-2.6-.7-5.3-.5-7.9-1.2-2.8-.7-4.4-3-3.9-5.6.4-2.4 2.7-4.3 5.4-4.1 16.4 1.2 28.1 9.6 29.7 28.9.1 1.4.3 2.8 0 4.1-.5 2.3-2.2 3.4-3.8 3.5-3.5.1 1.6-.1 0 0z"/></g></symbol></svg>