<svg version="1.1" xmlns="http://www.w3.org/2000/svg" xmlns:xlink="http://www.w3.org/1999/xlink" x="0px" y="0px"
	 viewBox="0 0 110.9 110.3" style="enable-background:new 0 0 110.9 110.3;" xml:space="preserve">
<style type="text/css">
	.style0-0{clip-path:url(#SVGID_2-2_);fill:#C0C6DD;}
	.style1-1{clip-path:url(#SVGID_4-4_);fill:#0206D4;}
	.style2-2{fill:#DC4711;}
	.style3-3{clip-path:url(#SVGID_6-6_);fill:#0206D4;}
</style>
<g id="Слой_1-1">
	<g>
		<defs>
			<path id="SVGID_1-1_" d="M67.5,0v61.8c0,9.7-8.1,17.6-18.1,17.6c-10,0-18.1-7.9-18.1-17.6V0H0v61.8c0,26.7,22.2,48.5,49.5,48.5
				c27.4,0,49.6-21.8,49.6-48.5V0H67.5z"/>
		</defs>
		<clipPath id="SVGID_2-2_">
			<use xlink:href="#SVGID_1-1_"  style="overflow:visible;"/>
		</clipPath>
		<path class="style0-0" d="M5.5-8c0,2.2-1.8,4-4,4c-2.2,0-4-1.8-4-4s1.8-4,4-4C3.7-12,5.5-10.2,5.5-8"/>
		<path class="style0-0" d="M17.5-8c0,2.2-1.8,4-4,4c-2.2,0-4-1.8-4-4s1.8-4,4-4C15.8-12,17.5-10.2,17.5-8"/>
		<path class="style0-0" d="M29.6-8c0,2.2-1.8,4-4,4c-2.2,0-4-1.8-4-4s1.8-4,4-4C27.8-12,29.6-10.2,29.6-8"/>
		<path class="style0-0" d="M41.7-8c0,2.2-1.8,4-4,4c-2.2,0-4-1.8-4-4s1.8-4,4-4C39.9-12,41.7-10.2,41.7-8"/>
		<path class="style0-0" d="M53.8-8c0,2.2-1.8,4-4,4c-2.2,0-4-1.8-4-4s1.8-4,4-4C52-12,53.8-10.2,53.8-8"/>
		<path class="style0-0" d="M65.9-8c0,2.2-1.8,4-4,4c-2.2,0-4-1.8-4-4s1.8-4,4-4C64.1-12,65.9-10.2,65.9-8"/>
		<path class="style0-0" d="M77.9-8c0,2.2-1.8,4-4,4c-2.2,0-4-1.8-4-4s1.8-4,4-4C76.2-12,77.9-10.2,77.9-8"/>
		<path class="style0-0" d="M90-8c0,2.2-1.8,4-4,4c-2.2,0-4-1.8-4-4s1.8-4,4-4C88.2-12,90-10.2,90-8"/>
		<path class="style0-0" d="M102.1-8c0,2.2-1.8,4-4,4c-2.2,0-4-1.8-4-4s1.8-4,4-4C100.3-12,102.1-10.2,102.1-8"/>
		<path class="style0-0" d="M114.2-8c0,2.2-1.8,4-4,4c-2.2,0-4-1.8-4-4s1.8-4,4-4C112.4-12,114.2-10.2,114.2-8"/>
		<path class="style0-0" d="M5.5,2.5c0,2.2-1.8,4-4,4c-2.2,0-4-1.8-4-4c0-2.2,1.8-4,4-4C3.7-1.5,5.5,0.3,5.5,2.5"/>
		<path class="style0-0" d="M17.5,2.5c0,2.2-1.8,4-4,4c-2.2,0-4-1.8-4-4c0-2.2,1.8-4,4-4C15.8-1.5,17.5,0.3,17.5,2.5"/>
		<path class="style0-0" d="M29.6,2.5c0,2.2-1.8,4-4,4c-2.2,0-4-1.8-4-4c0-2.2,1.8-4,4-4C27.8-1.5,29.6,0.3,29.6,2.5"/>
		<path class="style0-0" d="M41.7,2.5c0,2.2-1.8,4-4,4c-2.2,0-4-1.8-4-4c0-2.2,1.8-4,4-4C39.9-1.5,41.7,0.3,41.7,2.5"/>
		<path class="style0-0" d="M53.8,2.5c0,2.2-1.8,4-4,4c-2.2,0-4-1.8-4-4c0-2.2,1.8-4,4-4C52-1.5,53.8,0.3,53.8,2.5"/>
		<path class="style0-0" d="M65.9,2.5c0,2.2-1.8,4-4,4c-2.2,0-4-1.8-4-4c0-2.2,1.8-4,4-4C64.1-1.5,65.9,0.3,65.9,2.5"/>
		<path class="style0-0" d="M77.9,2.5c0,2.2-1.8,4-4,4c-2.2,0-4-1.8-4-4c0-2.2,1.8-4,4-4C76.2-1.5,77.9,0.3,77.9,2.5"/>
		<path class="style0-0" d="M90,2.5c0,2.2-1.8,4-4,4c-2.2,0-4-1.8-4-4c0-2.2,1.8-4,4-4C88.2-1.5,90,0.3,90,2.5"/>
		<path class="style0-0" d="M102.1,2.5c0,2.2-1.8,4-4,4c-2.2,0-4-1.8-4-4c0-2.2,1.8-4,4-4C100.3-1.5,102.1,0.3,102.1,2.5"/>
		<path class="style0-0" d="M114.2,2.5c0,2.2-1.8,4-4,4c-2.2,0-4-1.8-4-4c0-2.2,1.8-4,4-4C112.4-1.5,114.2,0.3,114.2,2.5"/>
		<path class="style0-0" d="M5.5,13c0,2.2-1.8,4-4,4c-2.2,0-4-1.8-4-4c0-2.2,1.8-4,4-4C3.7,9.1,5.5,10.8,5.5,13"/>
		<path class="style0-0" d="M17.5,13c0,2.2-1.8,4-4,4c-2.2,0-4-1.8-4-4c0-2.2,1.8-4,4-4C15.8,9.1,17.5,10.8,17.5,13"/>
		<path class="style0-0" d="M29.6,13c0,2.2-1.8,4-4,4c-2.2,0-4-1.8-4-4c0-2.2,1.8-4,4-4C27.8,9.1,29.6,10.8,29.6,13"/>
		<path class="style0-0" d="M41.7,13c0,2.2-1.8,4-4,4c-2.2,0-4-1.8-4-4c0-2.2,1.8-4,4-4C39.9,9.1,41.7,10.8,41.7,13"/>
		<path class="style0-0" d="M53.8,13c0,2.2-1.8,4-4,4c-2.2,0-4-1.8-4-4c0-2.2,1.8-4,4-4C52,9.1,53.8,10.8,53.8,13"/>
		<path class="style0-0" d="M65.9,13c0,2.2-1.8,4-4,4c-2.2,0-4-1.8-4-4c0-2.2,1.8-4,4-4C64.1,9.1,65.9,10.8,65.9,13"/>
		<path class="style0-0" d="M77.9,13c0,2.2-1.8,4-4,4c-2.2,0-4-1.8-4-4c0-2.2,1.8-4,4-4C76.2,9.1,77.9,10.8,77.9,13"/>
		<path class="style0-0" d="M90,13c0,2.2-1.8,4-4,4c-2.2,0-4-1.8-4-4c0-2.2,1.8-4,4-4C88.2,9.1,90,10.8,90,13"/>
		<path class="style0-0" d="M102.1,13c0,2.2-1.8,4-4,4c-2.2,0-4-1.8-4-4c0-2.2,1.8-4,4-4C100.3,9.1,102.1,10.8,102.1,13"/>
		<path class="style0-0" d="M114.2,13c0,2.2-1.8,4-4,4c-2.2,0-4-1.8-4-4c0-2.2,1.8-4,4-4C112.4,9.1,114.2,10.8,114.2,13"/>
		<path class="style0-0" d="M5.5,23.6c0,2.2-1.8,4-4,4c-2.2,0-4-1.8-4-4c0-2.2,1.8-4,4-4C3.7,19.6,5.5,21.4,5.5,23.6"/>
		<path class="style0-0" d="M17.5,23.6c0,2.2-1.8,4-4,4c-2.2,0-4-1.8-4-4c0-2.2,1.8-4,4-4C15.8,19.6,17.5,21.4,17.5,23.6"/>
		<path class="style0-0" d="M29.6,23.6c0,2.2-1.8,4-4,4c-2.2,0-4-1.8-4-4c0-2.2,1.8-4,4-4C27.8,19.6,29.6,21.4,29.6,23.6"/>
		<path class="style0-0" d="M41.7,23.6c0,2.2-1.8,4-4,4c-2.2,0-4-1.8-4-4c0-2.2,1.8-4,4-4C39.9,19.6,41.7,21.4,41.7,23.6"/>
		<path class="style0-0" d="M53.8,23.6c0,2.2-1.8,4-4,4c-2.2,0-4-1.8-4-4c0-2.2,1.8-4,4-4C52,19.6,53.8,21.4,53.8,23.6"/>
		<path class="style0-0" d="M65.9,23.6c0,2.2-1.8,4-4,4c-2.2,0-4-1.8-4-4c0-2.2,1.8-4,4-4C64.1,19.6,65.9,21.4,65.9,23.6"/>
		<path class="style0-0" d="M77.9,23.6c0,2.2-1.8,4-4,4c-2.2,0-4-1.8-4-4c0-2.2,1.8-4,4-4C76.2,19.6,77.9,21.4,77.9,23.6"/>
		<path class="style0-0" d="M90,23.6c0,2.2-1.8,4-4,4c-2.2,0-4-1.8-4-4c0-2.2,1.8-4,4-4C88.2,19.6,90,21.4,90,23.6"/>
		<path class="style0-0" d="M102.1,23.6c0,2.2-1.8,4-4,4c-2.2,0-4-1.8-4-4c0-2.2,1.8-4,4-4C100.3,19.6,102.1,21.4,102.1,23.6"/>
		<path class="style0-0" d="M114.2,23.6c0,2.2-1.8,4-4,4c-2.2,0-4-1.8-4-4c0-2.2,1.8-4,4-4C112.4,19.6,114.2,21.4,114.2,23.6"/>
		<path class="style0-0" d="M5.5,34.1c0,2.2-1.8,4-4,4c-2.2,0-4-1.8-4-4c0-2.2,1.8-4,4-4C3.7,30.1,5.5,31.9,5.5,34.1"/>
		<path class="style0-0" d="M17.5,34.1c0,2.2-1.8,4-4,4c-2.2,0-4-1.8-4-4c0-2.2,1.8-4,4-4C15.8,30.1,17.5,31.9,17.5,34.1"/>
		<path class="style0-0" d="M29.6,34.1c0,2.2-1.8,4-4,4c-2.2,0-4-1.8-4-4c0-2.2,1.8-4,4-4C27.8,30.1,29.6,31.9,29.6,34.1"/>
		<path class="style0-0" d="M41.7,34.1c0,2.2-1.8,4-4,4c-2.2,0-4-1.8-4-4c0-2.2,1.8-4,4-4C39.9,30.1,41.7,31.9,41.7,34.1"/>
		<path class="style0-0" d="M53.8,34.1c0,2.2-1.8,4-4,4c-2.2,0-4-1.8-4-4c0-2.2,1.8-4,4-4C52,30.1,53.8,31.9,53.8,34.1"/>
		<path class="style0-0" d="M65.9,34.1c0,2.2-1.8,4-4,4c-2.2,0-4-1.8-4-4c0-2.2,1.8-4,4-4C64.1,30.1,65.9,31.9,65.9,34.1"/>
		<path class="style0-0" d="M77.9,34.1c0,2.2-1.8,4-4,4c-2.2,0-4-1.8-4-4c0-2.2,1.8-4,4-4C76.2,30.1,77.9,31.9,77.9,34.1"/>
		<path class="style0-0" d="M90,34.1c0,2.2-1.8,4-4,4c-2.2,0-4-1.8-4-4c0-2.2,1.8-4,4-4C88.2,30.1,90,31.9,90,34.1"/>
		<path class="style0-0" d="M102.1,34.1c0,2.2-1.8,4-4,4c-2.2,0-4-1.8-4-4c0-2.2,1.8-4,4-4C100.3,30.1,102.1,31.9,102.1,34.1"/>
		<path class="style0-0" d="M114.2,34.1c0,2.2-1.8,4-4,4c-2.2,0-4-1.8-4-4c0-2.2,1.8-4,4-4C112.4,30.1,114.2,31.9,114.2,34.1"/>
		<path class="style0-0" d="M5.5,44.6c0,2.2-1.8,4-4,4c-2.2,0-4-1.8-4-4c0-2.2,1.8-4,4-4C3.7,40.7,5.5,42.4,5.5,44.6"/>
		<path class="style0-0" d="M17.5,44.6c0,2.2-1.8,4-4,4c-2.2,0-4-1.8-4-4c0-2.2,1.8-4,4-4C15.8,40.7,17.5,42.4,17.5,44.6"/>
		<path class="style0-0" d="M29.6,44.6c0,2.2-1.8,4-4,4c-2.2,0-4-1.8-4-4c0-2.2,1.8-4,4-4C27.8,40.7,29.6,42.4,29.6,44.6"/>
		<path class="style0-0" d="M41.7,44.6c0,2.2-1.8,4-4,4c-2.2,0-4-1.8-4-4c0-2.2,1.8-4,4-4C39.9,40.7,41.7,42.4,41.7,44.6"/>
		<path class="style0-0" d="M53.8,44.6c0,2.2-1.8,4-4,4c-2.2,0-4-1.8-4-4c0-2.2,1.8-4,4-4C52,40.7,53.8,42.4,53.8,44.6"/>
		<path class="style0-0" d="M65.9,44.6c0,2.2-1.8,4-4,4c-2.2,0-4-1.8-4-4c0-2.2,1.8-4,4-4C64.1,40.7,65.9,42.4,65.9,44.6"/>
		<path class="style0-0" d="M77.9,44.6c0,2.2-1.8,4-4,4c-2.2,0-4-1.8-4-4c0-2.2,1.8-4,4-4C76.2,40.7,77.9,42.4,77.9,44.6"/>
		<path class="style0-0" d="M90,44.6c0,2.2-1.8,4-4,4c-2.2,0-4-1.8-4-4c0-2.2,1.8-4,4-4C88.2,40.7,90,42.4,90,44.6"/>
		<path class="style0-0" d="M102.1,44.6c0,2.2-1.8,4-4,4c-2.2,0-4-1.8-4-4c0-2.2,1.8-4,4-4C100.3,40.7,102.1,42.4,102.1,44.6"/>
		<path class="style0-0" d="M114.2,44.6c0,2.2-1.8,4-4,4c-2.2,0-4-1.8-4-4c0-2.2,1.8-4,4-4C112.4,40.7,114.2,42.4,114.2,44.6"/>
		<path class="style0-0" d="M5.5,55.1c0,2.2-1.8,4-4,4c-2.2,0-4-1.8-4-4c0-2.2,1.8-4,4-4C3.7,51.2,5.5,53,5.5,55.1"/>
		<path class="style0-0" d="M17.5,55.1c0,2.2-1.8,4-4,4c-2.2,0-4-1.8-4-4c0-2.2,1.8-4,4-4C15.8,51.2,17.5,53,17.5,55.1"/>
		<path class="style0-0" d="M29.6,55.1c0,2.2-1.8,4-4,4c-2.2,0-4-1.8-4-4c0-2.2,1.8-4,4-4C27.8,51.2,29.6,53,29.6,55.1"/>
		<path class="style0-0" d="M41.7,55.1c0,2.2-1.8,4-4,4c-2.2,0-4-1.8-4-4c0-2.2,1.8-4,4-4C39.9,51.2,41.7,53,41.7,55.1"/>
		<path class="style0-0" d="M53.8,55.1c0,2.2-1.8,4-4,4c-2.2,0-4-1.8-4-4c0-2.2,1.8-4,4-4C52,51.2,53.8,53,53.8,55.1"/>
		<path class="style0-0" d="M65.9,55.1c0,2.2-1.8,4-4,4c-2.2,0-4-1.8-4-4c0-2.2,1.8-4,4-4C64.1,51.2,65.9,53,65.9,55.1"/>
		<path class="style0-0" d="M77.9,55.1c0,2.2-1.8,4-4,4c-2.2,0-4-1.8-4-4c0-2.2,1.8-4,4-4C76.2,51.2,77.9,53,77.9,55.1"/>
		<path class="style0-0" d="M90,55.1c0,2.2-1.8,4-4,4c-2.2,0-4-1.8-4-4c0-2.2,1.8-4,4-4C88.2,51.2,90,53,90,55.1"/>
		<path class="style0-0" d="M102.1,55.1c0,2.2-1.8,4-4,4c-2.2,0-4-1.8-4-4c0-2.2,1.8-4,4-4C100.3,51.2,102.1,53,102.1,55.1"/>
		<path class="style0-0" d="M114.2,55.1c0,2.2-1.8,4-4,4c-2.2,0-4-1.8-4-4c0-2.2,1.8-4,4-4C112.4,51.2,114.2,53,114.2,55.1"/>
		<path class="style0-0" d="M5.5,65.7c0,2.2-1.8,4-4,4c-2.2,0-4-1.8-4-4c0-2.2,1.8-4,4-4C3.7,61.7,5.5,63.5,5.5,65.7"/>
		<path class="style0-0" d="M17.5,65.7c0,2.2-1.8,4-4,4c-2.2,0-4-1.8-4-4c0-2.2,1.8-4,4-4C15.8,61.7,17.5,63.5,17.5,65.7"/>
		<path class="style0-0" d="M29.6,65.7c0,2.2-1.8,4-4,4c-2.2,0-4-1.8-4-4c0-2.2,1.8-4,4-4C27.8,61.7,29.6,63.5,29.6,65.7"/>
		<path class="style0-0" d="M41.7,65.7c0,2.2-1.8,4-4,4c-2.2,0-4-1.8-4-4c0-2.2,1.8-4,4-4C39.9,61.7,41.7,63.5,41.7,65.7"/>
		<path class="style0-0" d="M53.8,65.7c0,2.2-1.8,4-4,4c-2.2,0-4-1.8-4-4c0-2.2,1.8-4,4-4C52,61.7,53.8,63.5,53.8,65.7"/>
		<path class="style0-0" d="M65.9,65.7c0,2.2-1.8,4-4,4c-2.2,0-4-1.8-4-4c0-2.2,1.8-4,4-4C64.1,61.7,65.9,63.5,65.9,65.7"/>
		<path class="style0-0" d="M77.9,65.7c0,2.2-1.8,4-4,4c-2.2,0-4-1.8-4-4c0-2.2,1.8-4,4-4C76.2,61.7,77.9,63.5,77.9,65.7"/>
		<path class="style0-0" d="M90,65.7c0,2.2-1.8,4-4,4c-2.2,0-4-1.8-4-4c0-2.2,1.8-4,4-4C88.2,61.7,90,63.5,90,65.7"/>
		<path class="style0-0" d="M102.1,65.7c0,2.2-1.8,4-4,4c-2.2,0-4-1.8-4-4c0-2.2,1.8-4,4-4C100.3,61.7,102.1,63.5,102.1,65.7"/>
		<path class="style0-0" d="M114.2,65.7c0,2.2-1.8,4-4,4c-2.2,0-4-1.8-4-4c0-2.2,1.8-4,4-4C112.4,61.7,114.2,63.5,114.2,65.7"/>
		<path class="style0-0" d="M5.5,76.2c0,2.2-1.8,4-4,4c-2.2,0-4-1.8-4-4c0-2.2,1.8-4,4-4C3.7,72.2,5.5,74,5.5,76.2"/>
		<path class="style0-0" d="M17.5,76.2c0,2.2-1.8,4-4,4c-2.2,0-4-1.8-4-4c0-2.2,1.8-4,4-4C15.8,72.2,17.5,74,17.5,76.2"/>
		<path class="style0-0" d="M29.6,76.2c0,2.2-1.8,4-4,4c-2.2,0-4-1.8-4-4c0-2.2,1.8-4,4-4C27.8,72.2,29.6,74,29.6,76.2"/>
		<path class="style0-0" d="M41.7,76.2c0,2.2-1.8,4-4,4c-2.2,0-4-1.8-4-4c0-2.2,1.8-4,4-4C39.9,72.2,41.7,74,41.7,76.2"/>
		<path class="style0-0" d="M53.8,76.2c0,2.2-1.8,4-4,4c-2.2,0-4-1.8-4-4c0-2.2,1.8-4,4-4C52,72.2,53.8,74,53.8,76.2"/>
		<path class="style0-0" d="M77.9,76.2c0,2.2-1.8,4-4,4c-2.2,0-4-1.8-4-4c0-2.2,1.8-4,4-4C76.2,72.2,77.9,74,77.9,76.2"/>
		<path class="style0-0" d="M90,76.2c0,2.2-1.8,4-4,4c-2.2,0-4-1.8-4-4c0-2.2,1.8-4,4-4C88.2,72.2,90,74,90,76.2"/>
		<path class="style0-0" d="M102.1,76.2c0,2.2-1.8,4-4,4c-2.2,0-4-1.8-4-4c0-2.2,1.8-4,4-4C100.3,72.2,102.1,74,102.1,76.2"/>
		<path class="style0-0" d="M114.2,76.2c0,2.2-1.8,4-4,4c-2.2,0-4-1.8-4-4c0-2.2,1.8-4,4-4C112.4,72.2,114.2,74,114.2,76.2"/>
		<path class="style0-0" d="M5.5,86.7c0,2.2-1.8,4-4,4c-2.2,0-4-1.8-4-4c0-2.2,1.8-4,4-4C3.7,82.8,5.5,84.5,5.5,86.7"/>
		<path class="style0-0" d="M17.5,86.7c0,2.2-1.8,4-4,4c-2.2,0-4-1.8-4-4c0-2.2,1.8-4,4-4C15.8,82.8,17.5,84.5,17.5,86.7"/>
		<path class="style0-0" d="M29.6,86.7c0,2.2-1.8,4-4,4c-2.2,0-4-1.8-4-4c0-2.2,1.8-4,4-4C27.8,82.8,29.6,84.5,29.6,86.7"/>
		<path class="style0-0" d="M41.7,86.7c0,2.2-1.8,4-4,4c-2.2,0-4-1.8-4-4c0-2.2,1.8-4,4-4C39.9,82.8,41.7,84.5,41.7,86.7"/>
		<path class="style0-0" d="M53.8,86.7c0,2.2-1.8,4-4,4c-2.2,0-4-1.8-4-4c0-2.2,1.8-4,4-4C52,82.8,53.8,84.5,53.8,86.7"/>
		<path class="style0-0" d="M65.9,86.7c0,2.2-1.8,4-4,4c-2.2,0-4-1.8-4-4c0-2.2,1.8-4,4-4C64.1,82.8,65.9,84.5,65.9,86.7"/>
		<path class="style0-0" d="M77.9,86.7c0,2.2-1.8,4-4,4c-2.2,0-4-1.8-4-4c0-2.2,1.8-4,4-4C76.2,82.8,77.9,84.5,77.9,86.7"/>
		<path class="style0-0" d="M90,86.7c0,2.2-1.8,4-4,4c-2.2,0-4-1.8-4-4c0-2.2,1.8-4,4-4C88.2,82.8,90,84.5,90,86.7"/>
		<path class="style0-0" d="M102.1,86.7c0,2.2-1.8,4-4,4c-2.2,0-4-1.8-4-4c0-2.2,1.8-4,4-4C100.3,82.8,102.1,84.5,102.1,86.7"/>
		<path class="style0-0" d="M114.2,86.7c0,2.2-1.8,4-4,4c-2.2,0-4-1.8-4-4c0-2.2,1.8-4,4-4C112.4,82.8,114.2,84.5,114.2,86.7"/>
		<path class="style0-0" d="M5.5,97.3c0,2.2-1.8,4-4,4c-2.2,0-4-1.8-4-4c0-2.2,1.8-4,4-4C3.7,93.3,5.5,95.1,5.5,97.3"/>
		<path class="style0-0" d="M17.5,97.3c0,2.2-1.8,4-4,4c-2.2,0-4-1.8-4-4c0-2.2,1.8-4,4-4C15.8,93.3,17.5,95.1,17.5,97.3"/>
		<path class="style0-0" d="M29.6,97.3c0,2.2-1.8,4-4,4c-2.2,0-4-1.8-4-4c0-2.2,1.8-4,4-4C27.8,93.3,29.6,95.1,29.6,97.3"/>
		<path class="style0-0" d="M41.7,97.3c0,2.2-1.8,4-4,4c-2.2,0-4-1.8-4-4c0-2.2,1.8-4,4-4C39.9,93.3,41.7,95.1,41.7,97.3"/>
		<path class="style0-0" d="M53.8,97.3c0,2.2-1.8,4-4,4c-2.2,0-4-1.8-4-4c0-2.2,1.8-4,4-4C52,93.3,53.8,95.1,53.8,97.3"/>
		<path class="style0-0" d="M65.9,97.3c0,2.2-1.8,4-4,4c-2.2,0-4-1.8-4-4c0-2.2,1.8-4,4-4C64.1,93.3,65.9,95.1,65.9,97.3"/>
		<path class="style0-0" d="M77.9,97.3c0,2.2-1.8,4-4,4c-2.2,0-4-1.8-4-4c0-2.2,1.8-4,4-4C76.2,93.3,77.9,95.1,77.9,97.3"/>
		<path class="style0-0" d="M90,97.3c0,2.2-1.8,4-4,4c-2.2,0-4-1.8-4-4c0-2.2,1.8-4,4-4C88.2,93.3,90,95.1,90,97.3"/>
		<path class="style0-0" d="M102.1,97.3c0,2.2-1.8,4-4,4c-2.2,0-4-1.8-4-4c0-2.2,1.8-4,4-4C100.3,93.3,102.1,95.1,102.1,97.3"/>
		<path class="style0-0" d="M114.2,97.3c0,2.2-1.8,4-4,4c-2.2,0-4-1.8-4-4c0-2.2,1.8-4,4-4C112.4,93.3,114.2,95.1,114.2,97.3"/>
		<path class="style0-0" d="M5.5,107.8c0,2.2-1.8,4-4,4c-2.2,0-4-1.8-4-4c0-2.2,1.8-4,4-4C3.7,103.8,5.5,105.6,5.5,107.8"/>
		<path class="style0-0" d="M17.5,107.8c0,2.2-1.8,4-4,4c-2.2,0-4-1.8-4-4c0-2.2,1.8-4,4-4C15.8,103.8,17.5,105.6,17.5,107.8"/>
		<path class="style0-0" d="M29.6,107.8c0,2.2-1.8,4-4,4c-2.2,0-4-1.8-4-4c0-2.2,1.8-4,4-4C27.8,103.8,29.6,105.6,29.6,107.8"/>
		<path class="style0-0" d="M41.7,107.8c0,2.2-1.8,4-4,4c-2.2,0-4-1.8-4-4c0-2.2,1.8-4,4-4C39.9,103.8,41.7,105.6,41.7,107.8"/>
		<path class="style0-0" d="M53.8,107.8c0,2.2-1.8,4-4,4c-2.2,0-4-1.8-4-4c0-2.2,1.8-4,4-4C52,103.8,53.8,105.6,53.8,107.8"/>
		<path class="style0-0" d="M65.9,107.8c0,2.2-1.8,4-4,4c-2.2,0-4-1.8-4-4c0-2.2,1.8-4,4-4C64.1,103.8,65.9,105.6,65.9,107.8"/>
		<path class="style0-0" d="M77.9,107.8c0,2.2-1.8,4-4,4c-2.2,0-4-1.8-4-4c0-2.2,1.8-4,4-4C76.2,103.8,77.9,105.6,77.9,107.8"/>
		<path class="style0-0" d="M90,107.8c0,2.2-1.8,4-4,4c-2.2,0-4-1.8-4-4c0-2.2,1.8-4,4-4C88.2,103.8,90,105.6,90,107.8"/>
		<path class="style0-0" d="M102.1,107.8c0,2.2-1.8,4-4,4c-2.2,0-4-1.8-4-4c0-2.2,1.8-4,4-4C100.3,103.8,102.1,105.6,102.1,107.8"/>
		<path class="style0-0" d="M114.2,107.8c0,2.2-1.8,4-4,4c-2.2,0-4-1.8-4-4c0-2.2,1.8-4,4-4C112.4,103.8,114.2,105.6,114.2,107.8"/>
		<path class="style0-0" d="M5.5,118.3c0,2.2-1.8,4-4,4c-2.2,0-4-1.8-4-4c0-2.2,1.8-4,4-4C3.7,114.3,5.5,116.1,5.5,118.3"/>
		<path class="style0-0" d="M17.5,118.3c0,2.2-1.8,4-4,4c-2.2,0-4-1.8-4-4c0-2.2,1.8-4,4-4C15.8,114.3,17.5,116.1,17.5,118.3"/>
		<path class="style0-0" d="M29.6,118.3c0,2.2-1.8,4-4,4c-2.2,0-4-1.8-4-4c0-2.2,1.8-4,4-4C27.8,114.3,29.6,116.1,29.6,118.3"/>
		<path class="style0-0" d="M41.7,118.3c0,2.2-1.8,4-4,4c-2.2,0-4-1.8-4-4c0-2.2,1.8-4,4-4C39.9,114.3,41.7,116.1,41.7,118.3"/>
		<path class="style0-0" d="M53.8,118.3c0,2.2-1.8,4-4,4c-2.2,0-4-1.8-4-4c0-2.2,1.8-4,4-4C52,114.3,53.8,116.1,53.8,118.3"/>
		<path class="style0-0" d="M65.9,118.3c0,2.2-1.8,4-4,4c-2.2,0-4-1.8-4-4c0-2.2,1.8-4,4-4C64.1,114.3,65.9,116.1,65.9,118.3"/>
		<path class="style0-0" d="M77.9,118.3c0,2.2-1.8,4-4,4c-2.2,0-4-1.8-4-4c0-2.2,1.8-4,4-4C76.2,114.3,77.9,116.1,77.9,118.3"/>
		<path class="style0-0" d="M90,118.3c0,2.2-1.8,4-4,4c-2.2,0-4-1.8-4-4c0-2.2,1.8-4,4-4C88.2,114.3,90,116.1,90,118.3"/>
		<path class="style0-0" d="M102.1,118.3c0,2.2-1.8,4-4,4c-2.2,0-4-1.8-4-4c0-2.2,1.8-4,4-4C100.3,114.3,102.1,116.1,102.1,118.3"/>
		<path class="style0-0" d="M114.2,118.3c0,2.2-1.8,4-4,4c-2.2,0-4-1.8-4-4c0-2.2,1.8-4,4-4C112.4,114.3,114.2,116.1,114.2,118.3"/>
	</g>
</g>
<g id="Layer_2-2">
	<g>
		<defs>
			<path id="SVGID_3-3_" d="M79.5,0v61.8c0,9.7-8.1,17.6-18,17.6s-18-7.9-18-17.6V0H12.3v61.8c0,26.7,22.1,48.5,49.2,48.5
				c27.2,0,49.4-21.7,49.4-48.5V0H79.5z"/>
		</defs>
		<clipPath id="SVGID_4-4_">
			<use xlink:href="#SVGID_3-3_"  style="overflow:visible;"/>
		</clipPath>
		<path class="style1-1" d="M17.7-8.1c0,2.2-1.8,4-3.9,4s-3.9-1.8-3.9-4c0-2.2,1.8-4,3.9-4S17.7-10.2,17.7-8.1"/>
		<path class="style1-1" d="M29.7-8.1c0,2.2-1.8,4-3.9,4c-2.2,0-3.9-1.8-3.9-4c0-2.2,1.8-4,3.9-4C28-12,29.7-10.2,29.7-8.1"/>
		<path class="style1-1" d="M41.8-8.1c0,2.2-1.8,4-3.9,4c-2.2,0-3.9-1.8-3.9-4c0-2.2,1.8-4,3.9-4C40-12,41.8-10.2,41.8-8.1"/>
		<path class="style1-1" d="M53.8-8.1c0,2.2-1.8,4-3.9,4s-3.9-1.8-3.9-4c0-2.2,1.8-4,3.9-4S53.8-10.2,53.8-8.1"/>
		<path class="style1-1" d="M65.8-8.1c0,2.2-1.8,4-3.9,4c-2.2,0-3.9-1.8-3.9-4c0-2.2,1.8-4,3.9-4C64-12,65.8-10.2,65.8-8.1"/>
		<path class="style1-1" d="M77.8-8.1c0,2.2-1.8,4-3.9,4c-2.2,0-3.9-1.8-3.9-4c0-2.2,1.8-4,3.9-4C76.1-12,77.8-10.2,77.8-8.1"/>
		<path class="style1-1" d="M89.9-8.1c0,2.2-1.8,4-3.9,4S82-5.9,82-8.1c0-2.2,1.8-4,3.9-4S89.9-10.2,89.9-8.1"/>
		<path class="style1-1" d="M101.9-8.1c0,2.2-1.8,4-3.9,4S94-5.9,94-8.1c0-2.2,1.8-4,3.9-4S101.9-10.2,101.9-8.1"/>
		<path class="style1-1" d="M113.9-8.1c0,2.2-1.8,4-3.9,4c-2.2,0-3.9-1.8-3.9-4c0-2.2,1.8-4,3.9-4C112.1-12,113.9-10.2,113.9-8.1"/>
		<path class="style1-1" d="M125.9-8.1c0,2.2-1.8,4-3.9,4c-2.2,0-3.9-1.8-3.9-4c0-2.2,1.8-4,3.9-4C124.2-12,125.9-10.2,125.9-8.1"/>
		<path class="style1-1" d="M17.7,2.5c0,2.2-1.8,4-3.9,4s-3.9-1.8-3.9-4s1.8-4,3.9-4S17.7,0.3,17.7,2.5"/>
		<path class="style1-1" d="M29.7,2.5c0,2.2-1.8,4-3.9,4c-2.2,0-3.9-1.8-3.9-4s1.8-4,3.9-4C28-1.5,29.7,0.3,29.7,2.5"/>
		<path class="style1-1" d="M41.8,2.5c0,2.2-1.8,4-3.9,4c-2.2,0-3.9-1.8-3.9-4s1.8-4,3.9-4C40-1.5,41.8,0.3,41.8,2.5"/>
		<path class="style1-1" d="M53.8,2.5c0,2.2-1.8,4-3.9,4s-3.9-1.8-3.9-4s1.8-4,3.9-4S53.8,0.3,53.8,2.5"/>
		<path class="style1-1" d="M65.8,2.5c0,2.2-1.8,4-3.9,4c-2.2,0-3.9-1.8-3.9-4s1.8-4,3.9-4C64-1.5,65.8,0.3,65.8,2.5"/>
		<path class="style1-1" d="M77.8,2.5c0,2.2-1.8,4-3.9,4c-2.2,0-3.9-1.8-3.9-4s1.8-4,3.9-4C76.1-1.5,77.8,0.3,77.8,2.5"/>
		<path class="style1-1" d="M89.9,2.5c0,2.2-1.8,4-3.9,4S82,4.7,82,2.5s1.8-4,3.9-4S89.9,0.3,89.9,2.5"/>
		<path class="style1-1" d="M101.9,2.5c0,2.2-1.8,4-3.9,4S94,4.7,94,2.5s1.8-4,3.9-4S101.9,0.3,101.9,2.5"/>
		<path class="style1-1" d="M113.9,2.5c0,2.2-1.8,4-3.9,4c-2.2,0-3.9-1.8-3.9-4s1.8-4,3.9-4C112.1-1.5,113.9,0.3,113.9,2.5"/>
		<path class="style1-1" d="M125.9,2.5c0,2.2-1.8,4-3.9,4c-2.2,0-3.9-1.8-3.9-4s1.8-4,3.9-4C124.2-1.5,125.9,0.3,125.9,2.5"/>
		<path class="style1-1" d="M17.7,13c0,2.2-1.8,4-3.9,4s-3.9-1.8-3.9-4c0-2.2,1.8-4,3.9-4S17.7,10.8,17.7,13"/>
		<path class="style1-1" d="M29.7,13c0,2.2-1.8,4-3.9,4c-2.2,0-3.9-1.8-3.9-4c0-2.2,1.8-4,3.9-4C28,9,29.7,10.8,29.7,13"/>
		<path class="style1-1" d="M41.8,13c0,2.2-1.8,4-3.9,4c-2.2,0-3.9-1.8-3.9-4c0-2.2,1.8-4,3.9-4C40,9,41.8,10.8,41.8,13"/>
		<path class="style1-1" d="M53.8,13c0,2.2-1.8,4-3.9,4s-3.9-1.8-3.9-4c0-2.2,1.8-4,3.9-4S53.8,10.8,53.8,13"/>
		<path class="style1-1" d="M65.8,13c0,2.2-1.8,4-3.9,4c-2.2,0-3.9-1.8-3.9-4c0-2.2,1.8-4,3.9-4C64,9,65.8,10.8,65.8,13"/>
		<path class="style1-1" d="M77.8,13c0,2.2-1.8,4-3.9,4c-2.2,0-3.9-1.8-3.9-4c0-2.2,1.8-4,3.9-4C76.1,9,77.8,10.8,77.8,13"/>
		<path class="style1-1" d="M89.9,13c0,2.2-1.8,4-3.9,4S82,15.2,82,13c0-2.2,1.8-4,3.9-4S89.9,10.8,89.9,13"/>
		<path class="style1-1" d="M101.9,13c0,2.2-1.8,4-3.9,4S94,15.2,94,13c0-2.2,1.8-4,3.9-4S101.9,10.8,101.9,13"/>
		<path class="style1-1" d="M113.9,13c0,2.2-1.8,4-3.9,4c-2.2,0-3.9-1.8-3.9-4c0-2.2,1.8-4,3.9-4C112.1,9,113.9,10.8,113.9,13"/>
		<path class="style1-1" d="M125.9,13c0,2.2-1.8,4-3.9,4c-2.2,0-3.9-1.8-3.9-4c0-2.2,1.8-4,3.9-4C124.2,9,125.9,10.8,125.9,13"/>
		<path class="style1-1" d="M17.7,23.5c0,2.2-1.8,4-3.9,4s-3.9-1.8-3.9-4c0-2.2,1.8-4,3.9-4S17.7,21.3,17.7,23.5"/>
		<path class="style1-1" d="M29.7,23.5c0,2.2-1.8,4-3.9,4c-2.2,0-3.9-1.8-3.9-4c0-2.2,1.8-4,3.9-4C28,19.6,29.7,21.3,29.7,23.5"/>
		<path class="style1-1" d="M41.8,23.5c0,2.2-1.8,4-3.9,4c-2.2,0-3.9-1.8-3.9-4c0-2.2,1.8-4,3.9-4C40,19.6,41.8,21.3,41.8,23.5"/>
		<path class="style1-1" d="M53.8,23.5c0,2.2-1.8,4-3.9,4s-3.9-1.8-3.9-4c0-2.2,1.8-4,3.9-4S53.8,21.3,53.8,23.5"/>
		<path class="style1-1" d="M65.8,23.5c0,2.2-1.8,4-3.9,4c-2.2,0-3.9-1.8-3.9-4c0-2.2,1.8-4,3.9-4C64,19.6,65.8,21.3,65.8,23.5"/>
		<path class="style1-1" d="M77.8,23.5c0,2.2-1.8,4-3.9,4c-2.2,0-3.9-1.8-3.9-4c0-2.2,1.8-4,3.9-4C76.1,19.6,77.8,21.3,77.8,23.5"/>
		<path class="style1-1" d="M89.9,23.5c0,2.2-1.8,4-3.9,4s-3.9-1.8-3.9-4c0-2.2,1.8-4,3.9-4S89.9,21.3,89.9,23.5"/>
		<path class="style1-1" d="M101.9,23.5c0,2.2-1.8,4-3.9,4s-3.9-1.8-3.9-4c0-2.2,1.8-4,3.9-4S101.9,21.3,101.9,23.5"/>
		<path class="style1-1" d="M113.9,23.5c0,2.2-1.8,4-3.9,4c-2.2,0-3.9-1.8-3.9-4c0-2.2,1.8-4,3.9-4C112.1,19.6,113.9,21.3,113.9,23.5"/>
		<path class="style1-1" d="M125.9,23.5c0,2.2-1.8,4-3.9,4c-2.2,0-3.9-1.8-3.9-4c0-2.2,1.8-4,3.9-4C124.2,19.6,125.9,21.3,125.9,23.5"/>
		<path class="style1-1" d="M17.7,34.1c0,2.2-1.8,4-3.9,4s-3.9-1.8-3.9-4c0-2.2,1.8-4,3.9-4S17.7,31.9,17.7,34.1"/>
		<path class="style1-1" d="M29.7,34.1c0,2.2-1.8,4-3.9,4c-2.2,0-3.9-1.8-3.9-4c0-2.2,1.8-4,3.9-4C28,30.1,29.7,31.9,29.7,34.1"/>
		<path class="style1-1" d="M41.8,34.1c0,2.2-1.8,4-3.9,4c-2.2,0-3.9-1.8-3.9-4c0-2.2,1.8-4,3.9-4C40,30.1,41.8,31.9,41.8,34.1"/>
		<path class="style1-1" d="M53.8,34.1c0,2.2-1.8,4-3.9,4s-3.9-1.8-3.9-4c0-2.2,1.8-4,3.9-4S53.8,31.9,53.8,34.1"/>
		<path class="style1-1" d="M65.8,34.1c0,2.2-1.8,4-3.9,4c-2.2,0-3.9-1.8-3.9-4c0-2.2,1.8-4,3.9-4C64,30.1,65.8,31.9,65.8,34.1"/>
		<path class="style1-1" d="M77.8,34.1c0,2.2-1.8,4-3.9,4c-2.2,0-3.9-1.8-3.9-4c0-2.2,1.8-4,3.9-4C76.1,30.1,77.8,31.9,77.8,34.1"/>
		<path class="style1-1" d="M89.9,34.1c0,2.2-1.8,4-3.9,4s-3.9-1.8-3.9-4c0-2.2,1.8-4,3.9-4S89.9,31.9,89.9,34.1"/>
		<path class="style1-1" d="M101.9,34.1c0,2.2-1.8,4-3.9,4s-3.9-1.8-3.9-4c0-2.2,1.8-4,3.9-4S101.9,31.9,101.9,34.1"/>
		<path class="style1-1" d="M113.9,34.1c0,2.2-1.8,4-3.9,4c-2.2,0-3.9-1.8-3.9-4c0-2.2,1.8-4,3.9-4C112.1,30.1,113.9,31.9,113.9,34.1"/>
		<path class="style1-1" d="M125.9,34.1c0,2.2-1.8,4-3.9,4c-2.2,0-3.9-1.8-3.9-4c0-2.2,1.8-4,3.9-4C124.2,30.1,125.9,31.9,125.9,34.1"/>
		<path class="style1-1" d="M17.7,44.6c0,2.2-1.8,4-3.9,4s-3.9-1.8-3.9-4s1.8-4,3.9-4S17.7,42.4,17.7,44.6"/>
		<path class="style1-1" d="M29.7,44.6c0,2.2-1.8,4-3.9,4c-2.2,0-3.9-1.8-3.9-4s1.8-4,3.9-4C28,40.6,29.7,42.4,29.7,44.6"/>
		<path class="style1-1" d="M41.8,44.6c0,2.2-1.8,4-3.9,4c-2.2,0-3.9-1.8-3.9-4s1.8-4,3.9-4C40,40.6,41.8,42.4,41.8,44.6"/>
		<path class="style1-1" d="M53.8,44.6c0,2.2-1.8,4-3.9,4s-3.9-1.8-3.9-4s1.8-4,3.9-4S53.8,42.4,53.8,44.6"/>
		<path class="style1-1" d="M65.8,44.6c0,2.2-1.8,4-3.9,4c-2.2,0-3.9-1.8-3.9-4s1.8-4,3.9-4C64,40.6,65.8,42.4,65.8,44.6"/>
		<path class="style1-1" d="M77.8,44.6c0,2.2-1.8,4-3.9,4c-2.2,0-3.9-1.8-3.9-4s1.8-4,3.9-4C76.1,40.6,77.8,42.4,77.8,44.6"/>
		<path class="style1-1" d="M89.9,44.6c0,2.2-1.8,4-3.9,4s-3.9-1.8-3.9-4s1.8-4,3.9-4S89.9,42.4,89.9,44.6"/>
		<path class="style1-1" d="M101.9,44.6c0,2.2-1.8,4-3.9,4s-3.9-1.8-3.9-4s1.8-4,3.9-4S101.9,42.4,101.9,44.6"/>
		<path class="style1-1" d="M113.9,44.6c0,2.2-1.8,4-3.9,4c-2.2,0-3.9-1.8-3.9-4s1.8-4,3.9-4C112.1,40.6,113.9,42.4,113.9,44.6"/>
		<path class="style1-1" d="M125.9,44.6c0,2.2-1.8,4-3.9,4c-2.2,0-3.9-1.8-3.9-4s1.8-4,3.9-4C124.2,40.6,125.9,42.4,125.9,44.6"/>
		<path class="style1-1" d="M17.7,55.1c0,2.2-1.8,4-3.9,4s-3.9-1.8-3.9-4c0-2.2,1.8-4,3.9-4S17.7,52.9,17.7,55.1"/>
		<path class="style1-1" d="M29.7,55.1c0,2.2-1.8,4-3.9,4c-2.2,0-3.9-1.8-3.9-4c0-2.2,1.8-4,3.9-4C28,51.1,29.7,52.9,29.7,55.1"/>
		<path class="style1-1" d="M41.8,55.1c0,2.2-1.8,4-3.9,4c-2.2,0-3.9-1.8-3.9-4c0-2.2,1.8-4,3.9-4C40,51.1,41.8,52.9,41.8,55.1"/>
		<path class="style1-1" d="M53.8,55.1c0,2.2-1.8,4-3.9,4s-3.9-1.8-3.9-4c0-2.2,1.8-4,3.9-4S53.8,52.9,53.8,55.1"/>
		<path class="style1-1" d="M65.8,55.1c0,2.2-1.8,4-3.9,4c-2.2,0-3.9-1.8-3.9-4c0-2.2,1.8-4,3.9-4C64,51.1,65.8,52.9,65.8,55.1"/>
		<path class="style1-1" d="M77.8,55.1c0,2.2-1.8,4-3.9,4c-2.2,0-3.9-1.8-3.9-4c0-2.2,1.8-4,3.9-4C76.1,51.1,77.8,52.9,77.8,55.1"/>
		<path class="style1-1" d="M89.9,55.1c0,2.2-1.8,4-3.9,4s-3.9-1.8-3.9-4c0-2.2,1.8-4,3.9-4S89.9,52.9,89.9,55.1"/>
		<path class="style1-1" d="M101.9,55.1c0,2.2-1.8,4-3.9,4s-3.9-1.8-3.9-4c0-2.2,1.8-4,3.9-4S101.9,52.9,101.9,55.1"/>
		<path class="style1-1" d="M113.9,55.1c0,2.2-1.8,4-3.9,4c-2.2,0-3.9-1.8-3.9-4c0-2.2,1.8-4,3.9-4C112.1,51.1,113.9,52.9,113.9,55.1"/>
		<path class="style1-1" d="M125.9,55.1c0,2.2-1.8,4-3.9,4c-2.2,0-3.9-1.8-3.9-4c0-2.2,1.8-4,3.9-4C124.2,51.1,125.9,52.9,125.9,55.1"/>
		<path class="style1-1" d="M17.7,65.6c0,2.2-1.8,4-3.9,4s-3.9-1.8-3.9-4c0-2.2,1.8-4,3.9-4S17.7,63.4,17.7,65.6"/>
		<path class="style1-1" d="M29.7,65.6c0,2.2-1.8,4-3.9,4c-2.2,0-3.9-1.8-3.9-4c0-2.2,1.8-4,3.9-4C28,61.7,29.7,63.4,29.7,65.6"/>
		<path class="style1-1" d="M41.8,65.6c0,2.2-1.8,4-3.9,4c-2.2,0-3.9-1.8-3.9-4c0-2.2,1.8-4,3.9-4C40,61.7,41.8,63.4,41.8,65.6"/>
		<path class="style1-1" d="M53.8,65.6c0,2.2-1.8,4-3.9,4s-3.9-1.8-3.9-4c0-2.2,1.8-4,3.9-4S53.8,63.4,53.8,65.6"/>
		<path class="style1-1" d="M65.8,65.6c0,2.2-1.8,4-3.9,4c-2.2,0-3.9-1.8-3.9-4c0-2.2,1.8-4,3.9-4C64,61.7,65.8,63.4,65.8,65.6"/>
		<path class="style1-1" d="M77.8,65.6c0,2.2-1.8,4-3.9,4c-2.2,0-3.9-1.8-3.9-4c0-2.2,1.8-4,3.9-4C76.1,61.7,77.8,63.4,77.8,65.6"/>
		<path class="style1-1" d="M89.9,65.6c0,2.2-1.8,4-3.9,4s-3.9-1.8-3.9-4c0-2.2,1.8-4,3.9-4S89.9,63.4,89.9,65.6"/>
		<path class="style1-1" d="M101.9,65.6c0,2.2-1.8,4-3.9,4s-3.9-1.8-3.9-4c0-2.2,1.8-4,3.9-4S101.9,63.4,101.9,65.6"/>
		<path class="style1-1" d="M113.9,65.6c0,2.2-1.8,4-3.9,4c-2.2,0-3.9-1.8-3.9-4c0-2.2,1.8-4,3.9-4C112.1,61.7,113.9,63.4,113.9,65.6"/>
		<path class="style1-1" d="M125.9,65.6c0,2.2-1.8,4-3.9,4c-2.2,0-3.9-1.8-3.9-4c0-2.2,1.8-4,3.9-4C124.2,61.7,125.9,63.4,125.9,65.6"/>
		<path class="style1-1" d="M17.7,76.2c0,2.2-1.8,4-3.9,4s-3.9-1.8-3.9-4c0-2.2,1.8-4,3.9-4S17.7,74,17.7,76.2"/>
		<path class="style1-1" d="M29.7,76.2c0,2.2-1.8,4-3.9,4c-2.2,0-3.9-1.8-3.9-4c0-2.2,1.8-4,3.9-4C28,72.2,29.7,74,29.7,76.2"/>
		<path class="style1-1" d="M41.8,76.2c0,2.2-1.8,4-3.9,4c-2.2,0-3.9-1.8-3.9-4c0-2.2,1.8-4,3.9-4C40,72.2,41.8,74,41.8,76.2"/>
		<path class="style1-1" d="M53.8,76.2c0,2.2-1.8,4-3.9,4s-3.9-1.8-3.9-4c0-2.2,1.8-4,3.9-4S53.8,74,53.8,76.2"/>
		<path class="style1-1" d="M65.8,76.2c0,2.2-1.8,4-3.9,4c-2.2,0-3.9-1.8-3.9-4c0-2.2,1.8-4,3.9-4C64,72.2,65.8,74,65.8,76.2"/>
		<path class="style1-1" d="M77.8,76.2c0,2.2-1.8,4-3.9,4c-2.2,0-3.9-1.8-3.9-4c0-2.2,1.8-4,3.9-4C76.1,72.2,77.8,74,77.8,76.2"/>
		<path class="style1-1" d="M89.9,76.2c0,2.2-1.8,4-3.9,4s-3.9-1.8-3.9-4c0-2.2,1.8-4,3.9-4S89.9,74,89.9,76.2"/>
		<path class="style1-1" d="M101.9,76.2c0,2.2-1.8,4-3.9,4s-3.9-1.8-3.9-4c0-2.2,1.8-4,3.9-4S101.9,74,101.9,76.2"/>
		<path class="style1-1" d="M113.9,76.2c0,2.2-1.8,4-3.9,4c-2.2,0-3.9-1.8-3.9-4c0-2.2,1.8-4,3.9-4C112.1,72.2,113.9,74,113.9,76.2"/>
		<path class="style1-1" d="M125.9,76.2c0,2.2-1.8,4-3.9,4c-2.2,0-3.9-1.8-3.9-4c0-2.2,1.8-4,3.9-4C124.2,72.2,125.9,74,125.9,76.2"/>
		<path class="style1-1" d="M17.7,86.7c0,2.2-1.8,4-3.9,4s-3.9-1.8-3.9-4c0-2.2,1.8-4,3.9-4S17.7,84.5,17.7,86.7"/>
		<path class="style1-1" d="M29.7,86.7c0,2.2-1.8,4-3.9,4c-2.2,0-3.9-1.8-3.9-4c0-2.2,1.8-4,3.9-4C28,82.7,29.7,84.5,29.7,86.7"/>
		<path class="style1-1" d="M41.8,86.7c0,2.2-1.8,4-3.9,4c-2.2,0-3.9-1.8-3.9-4c0-2.2,1.8-4,3.9-4C40,82.7,41.8,84.5,41.8,86.7"/>
		<path class="style1-1" d="M53.8,86.7c0,2.2-1.8,4-3.9,4s-3.9-1.8-3.9-4c0-2.2,1.8-4,3.9-4S53.8,84.5,53.8,86.7"/>
		<path class="style1-1" d="M65.8,86.7c0,2.2-1.8,4-3.9,4c-2.2,0-3.9-1.8-3.9-4c0-2.2,1.8-4,3.9-4C64,82.7,65.8,84.5,65.8,86.7"/>
		<path class="style1-1" d="M77.8,86.7c0,2.2-1.8,4-3.9,4c-2.2,0-3.9-1.8-3.9-4c0-2.2,1.8-4,3.9-4C76.1,82.7,77.8,84.5,77.8,86.7"/>
		<path class="style1-1" d="M89.9,86.7c0,2.2-1.8,4-3.9,4s-3.9-1.8-3.9-4c0-2.2,1.8-4,3.9-4S89.9,84.5,89.9,86.7"/>
		<path class="style1-1" d="M101.9,86.7c0,2.2-1.8,4-3.9,4s-3.9-1.8-3.9-4c0-2.2,1.8-4,3.9-4S101.9,84.5,101.9,86.7"/>
		<path class="style1-1" d="M113.9,86.7c0,2.2-1.8,4-3.9,4c-2.2,0-3.9-1.8-3.9-4c0-2.2,1.8-4,3.9-4C112.1,82.7,113.9,84.5,113.9,86.7"/>
		<path class="style1-1" d="M125.9,86.7c0,2.2-1.8,4-3.9,4c-2.2,0-3.9-1.8-3.9-4c0-2.2,1.8-4,3.9-4C124.2,82.7,125.9,84.5,125.9,86.7"/>
		<path class="style1-1" d="M17.7,97.2c0,2.2-1.8,4-3.9,4s-3.9-1.8-3.9-4c0-2.2,1.8-4,3.9-4S17.7,95,17.7,97.2"/>
		<path class="style1-1" d="M29.7,97.2c0,2.2-1.8,4-3.9,4c-2.2,0-3.9-1.8-3.9-4c0-2.2,1.8-4,3.9-4C28,93.3,29.7,95,29.7,97.2"/>
		<path class="style1-1" d="M41.8,97.2c0,2.2-1.8,4-3.9,4c-2.2,0-3.9-1.8-3.9-4c0-2.2,1.8-4,3.9-4C40,93.3,41.8,95,41.8,97.2"/>
		<path class="style1-1" d="M53.8,97.2c0,2.2-1.8,4-3.9,4s-3.9-1.8-3.9-4c0-2.2,1.8-4,3.9-4S53.8,95,53.8,97.2"/>
		<path class="style1-1" d="M65.8,97.2c0,2.2-1.8,4-3.9,4c-2.2,0-3.9-1.8-3.9-4c0-2.2,1.8-4,3.9-4C64,93.3,65.8,95,65.8,97.2"/>
		<path class="style1-1" d="M77.8,97.2c0,2.2-1.8,4-3.9,4c-2.2,0-3.9-1.8-3.9-4c0-2.2,1.8-4,3.9-4C76.1,93.3,77.8,95,77.8,97.2"/>
		<path class="style1-1" d="M89.9,97.2c0,2.2-1.8,4-3.9,4s-3.9-1.8-3.9-4c0-2.2,1.8-4,3.9-4S89.9,95,89.9,97.2"/>
		<path class="style1-1" d="M101.9,97.2c0,2.2-1.8,4-3.9,4s-3.9-1.8-3.9-4c0-2.2,1.8-4,3.9-4S101.9,95,101.9,97.2"/>
		<path class="style1-1" d="M113.9,97.2c0,2.2-1.8,4-3.9,4c-2.2,0-3.9-1.8-3.9-4c0-2.2,1.8-4,3.9-4C112.1,93.3,113.9,95,113.9,97.2"/>
		<path class="style1-1" d="M125.9,97.2c0,2.2-1.8,4-3.9,4c-2.2,0-3.9-1.8-3.9-4c0-2.2,1.8-4,3.9-4C124.2,93.3,125.9,95,125.9,97.2"/>
		<path class="style1-1" d="M17.7,107.8c0,2.2-1.8,4-3.9,4s-3.9-1.8-3.9-4c0-2.2,1.8-4,3.9-4S17.7,105.6,17.7,107.8"/>
		<path class="style1-1" d="M29.7,107.8c0,2.2-1.8,4-3.9,4c-2.2,0-3.9-1.8-3.9-4c0-2.2,1.8-4,3.9-4C28,103.8,29.7,105.6,29.7,107.8"/>
		<path class="style1-1" d="M41.8,107.8c0,2.2-1.8,4-3.9,4c-2.2,0-3.9-1.8-3.9-4c0-2.2,1.8-4,3.9-4C40,103.8,41.8,105.6,41.8,107.8"/>
		<path class="style1-1" d="M53.8,107.8c0,2.2-1.8,4-3.9,4s-3.9-1.8-3.9-4c0-2.2,1.8-4,3.9-4S53.8,105.6,53.8,107.8"/>
		<path class="style1-1" d="M65.8,107.8c0,2.2-1.8,4-3.9,4c-2.2,0-3.9-1.8-3.9-4c0-2.2,1.8-4,3.9-4C64,103.8,65.8,105.6,65.8,107.8"/>
		<path class="style1-1" d="M77.8,107.8c0,2.2-1.8,4-3.9,4c-2.2,0-3.9-1.8-3.9-4c0-2.2,1.8-4,3.9-4C76.1,103.8,77.8,105.6,77.8,107.8"/>
		<path class="style1-1" d="M89.9,107.8c0,2.2-1.8,4-3.9,4s-3.9-1.8-3.9-4c0-2.2,1.8-4,3.9-4S89.9,105.6,89.9,107.8"/>
		<path class="style1-1" d="M101.9,107.8c0,2.2-1.8,4-3.9,4s-3.9-1.8-3.9-4c0-2.2,1.8-4,3.9-4S101.9,105.6,101.9,107.8"/>
		<path class="style1-1" d="M113.9,107.8c0,2.2-1.8,4-3.9,4c-2.2,0-3.9-1.8-3.9-4c0-2.2,1.8-4,3.9-4C112.1,103.8,113.9,105.6,113.9,107.8
			"/>
		<path class="style1-1" d="M125.9,107.8c0,2.2-1.8,4-3.9,4c-2.2,0-3.9-1.8-3.9-4c0-2.2,1.8-4,3.9-4C124.2,103.8,125.9,105.6,125.9,107.8
			"/>
		<path class="style1-1" d="M17.7,118.3c0,2.2-1.8,4-3.9,4s-3.9-1.8-3.9-4c0-2.2,1.8-4,3.9-4S17.7,116.1,17.7,118.3"/>
		<path class="style1-1" d="M29.7,118.3c0,2.2-1.8,4-3.9,4c-2.2,0-3.9-1.8-3.9-4c0-2.2,1.8-4,3.9-4C28,114.3,29.7,116.1,29.7,118.3"/>
		<path class="style1-1" d="M41.8,118.3c0,2.2-1.8,4-3.9,4c-2.2,0-3.9-1.8-3.9-4c0-2.2,1.8-4,3.9-4C40,114.3,41.8,116.1,41.8,118.3"/>
		<path class="style1-1" d="M53.8,118.3c0,2.2-1.8,4-3.9,4s-3.9-1.8-3.9-4c0-2.2,1.8-4,3.9-4S53.8,116.1,53.8,118.3"/>
		<path class="style1-1" d="M65.8,118.3c0,2.2-1.8,4-3.9,4c-2.2,0-3.9-1.8-3.9-4c0-2.2,1.8-4,3.9-4C64,114.3,65.8,116.1,65.8,118.3"/>
		<path class="style1-1" d="M77.8,118.3c0,2.2-1.8,4-3.9,4c-2.2,0-3.9-1.8-3.9-4c0-2.2,1.8-4,3.9-4C76.1,114.3,77.8,116.1,77.8,118.3"/>
		<path class="style1-1" d="M89.9,118.3c0,2.2-1.8,4-3.9,4s-3.9-1.8-3.9-4c0-2.2,1.8-4,3.9-4S89.9,116.1,89.9,118.3"/>
		<path class="style1-1" d="M101.9,118.3c0,2.2-1.8,4-3.9,4s-3.9-1.8-3.9-4c0-2.2,1.8-4,3.9-4S101.9,116.1,101.9,118.3"/>
		<path class="style1-1" d="M113.9,118.3c0,2.2-1.8,4-3.9,4c-2.2,0-3.9-1.8-3.9-4c0-2.2,1.8-4,3.9-4C112.1,114.3,113.9,116.1,113.9,118.3
			"/>
		<path class="style1-1" d="M125.9,118.3c0,2.2-1.8,4-3.9,4c-2.2,0-3.9-1.8-3.9-4c0-2.2,1.8-4,3.9-4C124.2,114.3,125.9,116.1,125.9,118.3
			"/>
	</g>
	<path class="style2-2" d="M79.5,0v61.8c0,9.7-8.1,17.6-18,17.6s-18-7.9-18-17.6V0H12.3v61.8c0,26.8,22.1,48.5,49.2,48.5
		c27.2,0,49.4-21.8,49.4-48.5V0H79.5z"/>
</g>
<g id="Layer_3-3">
	<g>
		<defs>
			<path id="SVGID_5-5_" d="M79.5,0v61.8c0,9.7-8.1,17.6-18,17.6s-18-7.9-18-17.6V0H12.3v61.8c0,26.7,22.1,48.5,49.2,48.5
				c27.2,0,49.4-21.7,49.4-48.5V0H79.5z"/>
		</defs>
		<clipPath id="SVGID_6-6_">
			<use xlink:href="#SVGID_5-5_"  style="overflow:visible;"/>
		</clipPath>
		<path class="style3-3" d="M17.7-8.1c0,2.2-1.8,4-3.9,4s-3.9-1.8-3.9-4c0-2.2,1.8-4,3.9-4S17.7-10.2,17.7-8.1"/>
		<path class="style3-3" d="M29.7-8.1c0,2.2-1.8,4-3.9,4c-2.2,0-3.9-1.8-3.9-4c0-2.2,1.8-4,3.9-4C28-12,29.7-10.2,29.7-8.1"/>
		<path class="style3-3" d="M41.8-8.1c0,2.2-1.8,4-3.9,4c-2.2,0-3.9-1.8-3.9-4c0-2.2,1.8-4,3.9-4C40-12,41.8-10.2,41.8-8.1"/>
		<path class="style3-3" d="M53.8-8.1c0,2.2-1.8,4-3.9,4s-3.9-1.8-3.9-4c0-2.2,1.8-4,3.9-4S53.8-10.2,53.8-8.1"/>
		<path class="style3-3" d="M65.8-8.1c0,2.2-1.8,4-3.9,4c-2.2,0-3.9-1.8-3.9-4c0-2.2,1.8-4,3.9-4C64-12,65.8-10.2,65.8-8.1"/>
		<path class="style3-3" d="M77.8-8.1c0,2.2-1.8,4-3.9,4c-2.2,0-3.9-1.8-3.9-4c0-2.2,1.8-4,3.9-4C76.1-12,77.8-10.2,77.8-8.1"/>
		<path class="style3-3" d="M89.9-8.1c0,2.2-1.8,4-3.9,4S82-5.9,82-8.1c0-2.2,1.8-4,3.9-4S89.9-10.2,89.9-8.1"/>
		<path class="style3-3" d="M101.9-8.1c0,2.2-1.8,4-3.9,4S94-5.9,94-8.1c0-2.2,1.8-4,3.9-4S101.9-10.2,101.9-8.1"/>
		<path class="style3-3" d="M113.9-8.1c0,2.2-1.8,4-3.9,4c-2.2,0-3.9-1.8-3.9-4c0-2.2,1.8-4,3.9-4C112.1-12,113.9-10.2,113.9-8.1"/>
		<path class="style3-3" d="M125.9-8.1c0,2.2-1.8,4-3.9,4c-2.2,0-3.9-1.8-3.9-4c0-2.2,1.8-4,3.9-4C124.2-12,125.9-10.2,125.9-8.1"/>
		<path class="style3-3" d="M17.7,2.5c0,2.2-1.8,4-3.9,4s-3.9-1.8-3.9-4s1.8-4,3.9-4S17.7,0.3,17.7,2.5"/>
		<path class="style3-3" d="M29.7,2.5c0,2.2-1.8,4-3.9,4c-2.2,0-3.9-1.8-3.9-4s1.8-4,3.9-4C28-1.5,29.7,0.3,29.7,2.5"/>
		<path class="style3-3" d="M41.8,2.5c0,2.2-1.8,4-3.9,4c-2.2,0-3.9-1.8-3.9-4s1.8-4,3.9-4C40-1.5,41.8,0.3,41.8,2.5"/>
		<path class="style3-3" d="M53.8,2.5c0,2.2-1.8,4-3.9,4s-3.9-1.8-3.9-4s1.8-4,3.9-4S53.8,0.3,53.8,2.5"/>
		<path class="style3-3" d="M65.8,2.5c0,2.2-1.8,4-3.9,4c-2.2,0-3.9-1.8-3.9-4s1.8-4,3.9-4C64-1.5,65.8,0.3,65.8,2.5"/>
		<path class="style3-3" d="M77.8,2.5c0,2.2-1.8,4-3.9,4c-2.2,0-3.9-1.8-3.9-4s1.8-4,3.9-4C76.1-1.5,77.8,0.3,77.8,2.5"/>
		<path class="style3-3" d="M89.9,2.5c0,2.2-1.8,4-3.9,4S82,4.7,82,2.5s1.8-4,3.9-4S89.9,0.3,89.9,2.5"/>
		<path class="style3-3" d="M101.9,2.5c0,2.2-1.8,4-3.9,4S94,4.7,94,2.5s1.8-4,3.9-4S101.9,0.3,101.9,2.5"/>
		<path class="style3-3" d="M113.9,2.5c0,2.2-1.8,4-3.9,4c-2.2,0-3.9-1.8-3.9-4s1.8-4,3.9-4C112.1-1.5,113.9,0.3,113.9,2.5"/>
		<path class="style3-3" d="M125.9,2.5c0,2.2-1.8,4-3.9,4c-2.2,0-3.9-1.8-3.9-4s1.8-4,3.9-4C124.2-1.5,125.9,0.3,125.9,2.5"/>
		<path class="style3-3" d="M17.7,13c0,2.2-1.8,4-3.9,4s-3.9-1.8-3.9-4c0-2.2,1.8-4,3.9-4S17.7,10.8,17.7,13"/>
		<path class="style3-3" d="M29.7,13c0,2.2-1.8,4-3.9,4c-2.2,0-3.9-1.8-3.9-4c0-2.2,1.8-4,3.9-4C28,9,29.7,10.8,29.7,13"/>
		<path class="style3-3" d="M41.8,13c0,2.2-1.8,4-3.9,4c-2.2,0-3.9-1.8-3.9-4c0-2.2,1.8-4,3.9-4C40,9,41.8,10.8,41.8,13"/>
		<path class="style3-3" d="M53.8,13c0,2.2-1.8,4-3.9,4s-3.9-1.8-3.9-4c0-2.2,1.8-4,3.9-4S53.8,10.8,53.8,13"/>
		<path class="style3-3" d="M65.8,13c0,2.2-1.8,4-3.9,4c-2.2,0-3.9-1.8-3.9-4c0-2.2,1.8-4,3.9-4C64,9,65.8,10.8,65.8,13"/>
		<path class="style3-3" d="M77.8,13c0,2.2-1.8,4-3.9,4c-2.2,0-3.9-1.8-3.9-4c0-2.2,1.8-4,3.9-4C76.1,9,77.8,10.8,77.8,13"/>
		<path class="style3-3" d="M89.9,13c0,2.2-1.8,4-3.9,4S82,15.2,82,13c0-2.2,1.8-4,3.9-4S89.9,10.8,89.9,13"/>
		<path class="style3-3" d="M101.9,13c0,2.2-1.8,4-3.9,4S94,15.2,94,13c0-2.2,1.8-4,3.9-4S101.9,10.8,101.9,13"/>
		<path class="style3-3" d="M113.9,13c0,2.2-1.8,4-3.9,4c-2.2,0-3.9-1.8-3.9-4c0-2.2,1.8-4,3.9-4C112.1,9,113.9,10.8,113.9,13"/>
		<path class="style3-3" d="M125.9,13c0,2.2-1.8,4-3.9,4c-2.2,0-3.9-1.8-3.9-4c0-2.2,1.8-4,3.9-4C124.2,9,125.9,10.8,125.9,13"/>
		<path class="style3-3" d="M17.7,23.5c0,2.2-1.8,4-3.9,4s-3.9-1.8-3.9-4c0-2.2,1.8-4,3.9-4S17.7,21.3,17.7,23.5"/>
		<path class="style3-3" d="M29.7,23.5c0,2.2-1.8,4-3.9,4c-2.2,0-3.9-1.8-3.9-4c0-2.2,1.8-4,3.9-4C28,19.6,29.7,21.3,29.7,23.5"/>
		<path class="style3-3" d="M41.8,23.5c0,2.2-1.8,4-3.9,4c-2.2,0-3.9-1.8-3.9-4c0-2.2,1.8-4,3.9-4C40,19.6,41.8,21.3,41.8,23.5"/>
		<path class="style3-3" d="M53.8,23.5c0,2.2-1.8,4-3.9,4s-3.9-1.8-3.9-4c0-2.2,1.8-4,3.9-4S53.8,21.3,53.8,23.5"/>
		<path class="style3-3" d="M65.8,23.5c0,2.2-1.8,4-3.9,4c-2.2,0-3.9-1.8-3.9-4c0-2.2,1.8-4,3.9-4C64,19.6,65.8,21.3,65.8,23.5"/>
		<path class="style3-3" d="M77.8,23.5c0,2.2-1.8,4-3.9,4c-2.2,0-3.9-1.8-3.9-4c0-2.2,1.8-4,3.9-4C76.1,19.6,77.8,21.3,77.8,23.5"/>
		<path class="style3-3" d="M89.9,23.5c0,2.2-1.8,4-3.9,4s-3.9-1.8-3.9-4c0-2.2,1.8-4,3.9-4S89.9,21.3,89.9,23.5"/>
		<path class="style3-3" d="M101.9,23.5c0,2.2-1.8,4-3.9,4s-3.9-1.8-3.9-4c0-2.2,1.8-4,3.9-4S101.9,21.3,101.9,23.5"/>
		<path class="style3-3" d="M113.9,23.5c0,2.2-1.8,4-3.9,4c-2.2,0-3.9-1.8-3.9-4c0-2.2,1.8-4,3.9-4C112.1,19.6,113.9,21.3,113.9,23.5"/>
		<path class="style3-3" d="M125.9,23.5c0,2.2-1.8,4-3.9,4c-2.2,0-3.9-1.8-3.9-4c0-2.2,1.8-4,3.9-4C124.2,19.6,125.9,21.3,125.9,23.5"/>
		<path class="style3-3" d="M17.7,34.1c0,2.2-1.8,4-3.9,4s-3.9-1.8-3.9-4c0-2.2,1.8-4,3.9-4S17.7,31.9,17.7,34.1"/>
		<path class="style3-3" d="M29.7,34.1c0,2.2-1.8,4-3.9,4c-2.2,0-3.9-1.8-3.9-4c0-2.2,1.8-4,3.9-4C28,30.1,29.7,31.9,29.7,34.1"/>
		<path class="style3-3" d="M41.8,34.1c0,2.2-1.8,4-3.9,4c-2.2,0-3.9-1.8-3.9-4c0-2.2,1.8-4,3.9-4C40,30.1,41.8,31.9,41.8,34.1"/>
		<path class="style3-3" d="M53.8,34.1c0,2.2-1.8,4-3.9,4s-3.9-1.8-3.9-4c0-2.2,1.8-4,3.9-4S53.8,31.9,53.8,34.1"/>
		<path class="style3-3" d="M65.8,34.1c0,2.2-1.8,4-3.9,4c-2.2,0-3.9-1.8-3.9-4c0-2.2,1.8-4,3.9-4C64,30.1,65.8,31.9,65.8,34.1"/>
		<path class="style3-3" d="M77.8,34.1c0,2.2-1.8,4-3.9,4c-2.2,0-3.9-1.8-3.9-4c0-2.2,1.8-4,3.9-4C76.1,30.1,77.8,31.9,77.8,34.1"/>
		<path class="style3-3" d="M89.9,34.1c0,2.2-1.8,4-3.9,4s-3.9-1.8-3.9-4c0-2.2,1.8-4,3.9-4S89.9,31.9,89.9,34.1"/>
		<path class="style3-3" d="M101.9,34.1c0,2.2-1.8,4-3.9,4s-3.9-1.8-3.9-4c0-2.2,1.8-4,3.9-4S101.9,31.9,101.9,34.1"/>
		<path class="style3-3" d="M113.9,34.1c0,2.2-1.8,4-3.9,4c-2.2,0-3.9-1.8-3.9-4c0-2.2,1.8-4,3.9-4C112.1,30.1,113.9,31.9,113.9,34.1"/>
		<path class="style3-3" d="M125.9,34.1c0,2.2-1.8,4-3.9,4c-2.2,0-3.9-1.8-3.9-4c0-2.2,1.8-4,3.9-4C124.2,30.1,125.9,31.9,125.9,34.1"/>
		<path class="style3-3" d="M17.7,44.6c0,2.2-1.8,4-3.9,4s-3.9-1.8-3.9-4s1.8-4,3.9-4S17.7,42.4,17.7,44.6"/>
		<path class="style3-3" d="M29.7,44.6c0,2.2-1.8,4-3.9,4c-2.2,0-3.9-1.8-3.9-4s1.8-4,3.9-4C28,40.6,29.7,42.4,29.7,44.6"/>
		<path class="style3-3" d="M41.8,44.6c0,2.2-1.8,4-3.9,4c-2.2,0-3.9-1.8-3.9-4s1.8-4,3.9-4C40,40.6,41.8,42.4,41.8,44.6"/>
		<path class="style3-3" d="M53.8,44.6c0,2.2-1.8,4-3.9,4s-3.9-1.8-3.9-4s1.8-4,3.9-4S53.8,42.4,53.8,44.6"/>
		<path class="style3-3" d="M65.8,44.6c0,2.2-1.8,4-3.9,4c-2.2,0-3.9-1.8-3.9-4s1.8-4,3.9-4C64,40.6,65.8,42.4,65.8,44.6"/>
		<path class="style3-3" d="M77.8,44.6c0,2.2-1.8,4-3.9,4c-2.2,0-3.9-1.8-3.9-4s1.8-4,3.9-4C76.1,40.6,77.8,42.4,77.8,44.6"/>
		<path class="style3-3" d="M89.9,44.6c0,2.2-1.8,4-3.9,4s-3.9-1.8-3.9-4s1.8-4,3.9-4S89.9,42.4,89.9,44.6"/>
		<path class="style3-3" d="M101.9,44.6c0,2.2-1.8,4-3.9,4s-3.9-1.8-3.9-4s1.8-4,3.9-4S101.9,42.4,101.9,44.6"/>
		<path class="style3-3" d="M113.9,44.6c0,2.2-1.8,4-3.9,4c-2.2,0-3.9-1.8-3.9-4s1.8-4,3.9-4C112.1,40.6,113.9,42.4,113.9,44.6"/>
		<path class="style3-3" d="M125.9,44.6c0,2.2-1.8,4-3.9,4c-2.2,0-3.9-1.8-3.9-4s1.8-4,3.9-4C124.2,40.6,125.9,42.4,125.9,44.6"/>
		<path class="style3-3" d="M17.7,55.1c0,2.2-1.8,4-3.9,4s-3.9-1.8-3.9-4c0-2.2,1.8-4,3.9-4S17.7,52.9,17.7,55.1"/>
		<path class="style3-3" d="M29.7,55.1c0,2.2-1.8,4-3.9,4c-2.2,0-3.9-1.8-3.9-4c0-2.2,1.8-4,3.9-4C28,51.1,29.7,52.9,29.7,55.1"/>
		<path class="style3-3" d="M41.8,55.1c0,2.2-1.8,4-3.9,4c-2.2,0-3.9-1.8-3.9-4c0-2.2,1.8-4,3.9-4C40,51.1,41.8,52.9,41.8,55.1"/>
		<path class="style3-3" d="M53.8,55.1c0,2.2-1.8,4-3.9,4s-3.9-1.8-3.9-4c0-2.2,1.8-4,3.9-4S53.8,52.9,53.8,55.1"/>
		<path class="style3-3" d="M65.8,55.1c0,2.2-1.8,4-3.9,4c-2.2,0-3.9-1.8-3.9-4c0-2.2,1.8-4,3.9-4C64,51.1,65.8,52.9,65.8,55.1"/>
		<path class="style3-3" d="M77.8,55.1c0,2.2-1.8,4-3.9,4c-2.2,0-3.9-1.8-3.9-4c0-2.2,1.8-4,3.9-4C76.1,51.1,77.8,52.9,77.8,55.1"/>
		<path class="style3-3" d="M89.9,55.1c0,2.2-1.8,4-3.9,4s-3.9-1.8-3.9-4c0-2.2,1.8-4,3.9-4S89.9,52.9,89.9,55.1"/>
		<path class="style3-3" d="M101.9,55.1c0,2.2-1.8,4-3.9,4s-3.9-1.8-3.9-4c0-2.2,1.8-4,3.9-4S101.9,52.9,101.9,55.1"/>
		<path class="style3-3" d="M113.9,55.1c0,2.2-1.8,4-3.9,4c-2.2,0-3.9-1.8-3.9-4c0-2.2,1.8-4,3.9-4C112.1,51.1,113.9,52.9,113.9,55.1"/>
		<path class="style3-3" d="M125.9,55.1c0,2.2-1.8,4-3.9,4c-2.2,0-3.9-1.8-3.9-4c0-2.2,1.8-4,3.9-4C124.2,51.1,125.9,52.9,125.9,55.1"/>
		<path class="style3-3" d="M17.7,65.6c0,2.2-1.8,4-3.9,4s-3.9-1.8-3.9-4c0-2.2,1.8-4,3.9-4S17.7,63.4,17.7,65.6"/>
		<path class="style3-3" d="M29.7,65.6c0,2.2-1.8,4-3.9,4c-2.2,0-3.9-1.8-3.9-4c0-2.2,1.8-4,3.9-4C28,61.7,29.7,63.4,29.7,65.6"/>
		<path class="style3-3" d="M41.8,65.6c0,2.2-1.8,4-3.9,4c-2.2,0-3.9-1.8-3.9-4c0-2.2,1.8-4,3.9-4C40,61.7,41.8,63.4,41.8,65.6"/>
		<path class="style3-3" d="M53.8,65.6c0,2.2-1.8,4-3.9,4s-3.9-1.8-3.9-4c0-2.2,1.8-4,3.9-4S53.8,63.4,53.8,65.6"/>
		<path class="style3-3" d="M65.8,65.6c0,2.2-1.8,4-3.9,4c-2.2,0-3.9-1.8-3.9-4c0-2.2,1.8-4,3.9-4C64,61.7,65.8,63.4,65.8,65.6"/>
		<path class="style3-3" d="M77.8,65.6c0,2.2-1.8,4-3.9,4c-2.2,0-3.9-1.8-3.9-4c0-2.2,1.8-4,3.9-4C76.1,61.7,77.8,63.4,77.8,65.6"/>
		<path class="style3-3" d="M89.9,65.6c0,2.2-1.8,4-3.9,4s-3.9-1.8-3.9-4c0-2.2,1.8-4,3.9-4S89.9,63.4,89.9,65.6"/>
		<path class="style3-3" d="M101.9,65.6c0,2.2-1.8,4-3.9,4s-3.9-1.8-3.9-4c0-2.2,1.8-4,3.9-4S101.9,63.4,101.9,65.6"/>
		<path class="style3-3" d="M113.9,65.6c0,2.2-1.8,4-3.9,4c-2.2,0-3.9-1.8-3.9-4c0-2.2,1.8-4,3.9-4C112.1,61.7,113.9,63.4,113.9,65.6"/>
		<path class="style3-3" d="M125.9,65.6c0,2.2-1.8,4-3.9,4c-2.2,0-3.9-1.8-3.9-4c0-2.2,1.8-4,3.9-4C124.2,61.7,125.9,63.4,125.9,65.6"/>
		<path class="style3-3" d="M17.7,76.2c0,2.2-1.8,4-3.9,4s-3.9-1.8-3.9-4c0-2.2,1.8-4,3.9-4S17.7,74,17.7,76.2"/>
		<path class="style3-3" d="M29.7,76.2c0,2.2-1.8,4-3.9,4c-2.2,0-3.9-1.8-3.9-4c0-2.2,1.8-4,3.9-4C28,72.2,29.7,74,29.7,76.2"/>
		<path class="style3-3" d="M41.8,76.2c0,2.2-1.8,4-3.9,4c-2.2,0-3.9-1.8-3.9-4c0-2.2,1.8-4,3.9-4C40,72.2,41.8,74,41.8,76.2"/>
		<path class="style3-3" d="M53.8,76.2c0,2.2-1.8,4-3.9,4s-3.9-1.8-3.9-4c0-2.2,1.8-4,3.9-4S53.8,74,53.8,76.2"/>
		<path class="style3-3" d="M65.8,76.2c0,2.2-1.8,4-3.9,4c-2.2,0-3.9-1.8-3.9-4c0-2.2,1.8-4,3.9-4C64,72.2,65.8,74,65.8,76.2"/>
		<path class="style3-3" d="M77.8,76.2c0,2.2-1.8,4-3.9,4c-2.2,0-3.9-1.8-3.9-4c0-2.2,1.8-4,3.9-4C76.1,72.2,77.8,74,77.8,76.2"/>
		<path class="style3-3" d="M89.9,76.2c0,2.2-1.8,4-3.9,4s-3.9-1.8-3.9-4c0-2.2,1.8-4,3.9-4S89.9,74,89.9,76.2"/>
		<path class="style3-3" d="M101.9,76.2c0,2.2-1.8,4-3.9,4s-3.9-1.8-3.9-4c0-2.2,1.8-4,3.9-4S101.9,74,101.9,76.2"/>
		<path class="style3-3" d="M113.9,76.2c0,2.2-1.8,4-3.9,4c-2.2,0-3.9-1.8-3.9-4c0-2.2,1.8-4,3.9-4C112.1,72.2,113.9,74,113.9,76.2"/>
		<path class="style3-3" d="M125.9,76.2c0,2.2-1.8,4-3.9,4c-2.2,0-3.9-1.8-3.9-4c0-2.2,1.8-4,3.9-4C124.2,72.2,125.9,74,125.9,76.2"/>
		<path class="style3-3" d="M17.7,86.7c0,2.2-1.8,4-3.9,4s-3.9-1.8-3.9-4c0-2.2,1.8-4,3.9-4S17.7,84.5,17.7,86.7"/>
		<path class="style3-3" d="M29.7,86.7c0,2.2-1.8,4-3.9,4c-2.2,0-3.9-1.8-3.9-4c0-2.2,1.8-4,3.9-4C28,82.7,29.7,84.5,29.7,86.7"/>
		<path class="style3-3" d="M41.8,86.7c0,2.2-1.8,4-3.9,4c-2.2,0-3.9-1.8-3.9-4c0-2.2,1.8-4,3.9-4C40,82.7,41.8,84.5,41.8,86.7"/>
		<path class="style3-3" d="M53.8,86.7c0,2.2-1.8,4-3.9,4s-3.9-1.8-3.9-4c0-2.2,1.8-4,3.9-4S53.8,84.5,53.8,86.7"/>
		<path class="style3-3" d="M65.8,86.7c0,2.2-1.8,4-3.9,4c-2.2,0-3.9-1.8-3.9-4c0-2.2,1.8-4,3.9-4C64,82.7,65.8,84.5,65.8,86.7"/>
		<path class="style3-3" d="M77.8,86.7c0,2.2-1.8,4-3.9,4c-2.2,0-3.9-1.8-3.9-4c0-2.2,1.8-4,3.9-4C76.1,82.7,77.8,84.5,77.8,86.7"/>
		<path class="style3-3" d="M89.9,86.7c0,2.2-1.8,4-3.9,4s-3.9-1.8-3.9-4c0-2.2,1.8-4,3.9-4S89.9,84.5,89.9,86.7"/>
		<path class="style3-3" d="M101.9,86.7c0,2.2-1.8,4-3.9,4s-3.9-1.8-3.9-4c0-2.2,1.8-4,3.9-4S101.9,84.5,101.9,86.7"/>
		<path class="style3-3" d="M113.9,86.7c0,2.2-1.8,4-3.9,4c-2.2,0-3.9-1.8-3.9-4c0-2.2,1.8-4,3.9-4C112.1,82.7,113.9,84.5,113.9,86.7"/>
		<path class="style3-3" d="M125.9,86.7c0,2.2-1.8,4-3.9,4c-2.2,0-3.9-1.8-3.9-4c0-2.2,1.8-4,3.9-4C124.2,82.7,125.9,84.5,125.9,86.7"/>
		<path class="style3-3" d="M17.7,97.2c0,2.2-1.8,4-3.9,4s-3.9-1.8-3.9-4c0-2.2,1.8-4,3.9-4S17.7,95,17.7,97.2"/>
		<path class="style3-3" d="M29.7,97.2c0,2.2-1.8,4-3.9,4c-2.2,0-3.9-1.8-3.9-4c0-2.2,1.8-4,3.9-4C28,93.3,29.7,95,29.7,97.2"/>
		<path class="style3-3" d="M41.8,97.2c0,2.2-1.8,4-3.9,4c-2.2,0-3.9-1.8-3.9-4c0-2.2,1.8-4,3.9-4C40,93.3,41.8,95,41.8,97.2"/>
		<path class="style3-3" d="M53.8,97.2c0,2.2-1.8,4-3.9,4s-3.9-1.8-3.9-4c0-2.2,1.8-4,3.9-4S53.8,95,53.8,97.2"/>
		<path class="style3-3" d="M65.8,97.2c0,2.2-1.8,4-3.9,4c-2.2,0-3.9-1.8-3.9-4c0-2.2,1.8-4,3.9-4C64,93.3,65.8,95,65.8,97.2"/>
		<path class="style3-3" d="M77.8,97.2c0,2.2-1.8,4-3.9,4c-2.2,0-3.9-1.8-3.9-4c0-2.2,1.8-4,3.9-4C76.1,93.3,77.8,95,77.8,97.2"/>
		<path class="style3-3" d="M89.9,97.2c0,2.2-1.8,4-3.9,4s-3.9-1.8-3.9-4c0-2.2,1.8-4,3.9-4S89.9,95,89.9,97.2"/>
		<path class="style3-3" d="M101.9,97.2c0,2.2-1.8,4-3.9,4s-3.9-1.8-3.9-4c0-2.2,1.8-4,3.9-4S101.9,95,101.9,97.2"/>
		<path class="style3-3" d="M113.9,97.2c0,2.2-1.8,4-3.9,4c-2.2,0-3.9-1.8-3.9-4c0-2.2,1.8-4,3.9-4C112.1,93.3,113.9,95,113.9,97.2"/>
		<path class="style3-3" d="M125.9,97.2c0,2.2-1.8,4-3.9,4c-2.2,0-3.9-1.8-3.9-4c0-2.2,1.8-4,3.9-4C124.2,93.3,125.9,95,125.9,97.2"/>
		<path class="style3-3" d="M17.7,107.8c0,2.2-1.8,4-3.9,4s-3.9-1.8-3.9-4c0-2.2,1.8-4,3.9-4S17.7,105.6,17.7,107.8"/>
		<path class="style3-3" d="M29.7,107.8c0,2.2-1.8,4-3.9,4c-2.2,0-3.9-1.8-3.9-4c0-2.2,1.8-4,3.9-4C28,103.8,29.7,105.6,29.7,107.8"/>
		<path class="style3-3" d="M41.8,107.8c0,2.2-1.8,4-3.9,4c-2.2,0-3.9-1.8-3.9-4c0-2.2,1.8-4,3.9-4C40,103.8,41.8,105.6,41.8,107.8"/>
		<path class="style3-3" d="M53.8,107.8c0,2.2-1.8,4-3.9,4s-3.9-1.8-3.9-4c0-2.2,1.8-4,3.9-4S53.8,105.6,53.8,107.8"/>
		<path class="style3-3" d="M65.8,107.8c0,2.2-1.8,4-3.9,4c-2.2,0-3.9-1.8-3.9-4c0-2.2,1.8-4,3.9-4C64,103.8,65.8,105.6,65.8,107.8"/>
		<path class="style3-3" d="M77.8,107.8c0,2.2-1.8,4-3.9,4c-2.2,0-3.9-1.8-3.9-4c0-2.2,1.8-4,3.9-4C76.1,103.8,77.8,105.6,77.8,107.8"/>
		<path class="style3-3" d="M89.9,107.8c0,2.2-1.8,4-3.9,4s-3.9-1.8-3.9-4c0-2.2,1.8-4,3.9-4S89.9,105.6,89.9,107.8"/>
		<path class="style3-3" d="M101.9,107.8c0,2.2-1.8,4-3.9,4s-3.9-1.8-3.9-4c0-2.2,1.8-4,3.9-4S101.9,105.6,101.9,107.8"/>
		<path class="style3-3" d="M113.9,107.8c0,2.2-1.8,4-3.9,4c-2.2,0-3.9-1.8-3.9-4c0-2.2,1.8-4,3.9-4C112.1,103.8,113.9,105.6,113.9,107.8
			"/>
		<path class="style3-3" d="M125.9,107.8c0,2.2-1.8,4-3.9,4c-2.2,0-3.9-1.8-3.9-4c0-2.2,1.8-4,3.9-4C124.2,103.8,125.9,105.6,125.9,107.8
			"/>
		<path class="style3-3" d="M17.7,118.3c0,2.2-1.8,4-3.9,4s-3.9-1.8-3.9-4c0-2.2,1.8-4,3.9-4S17.7,116.1,17.7,118.3"/>
		<path class="style3-3" d="M29.7,118.3c0,2.2-1.8,4-3.9,4c-2.2,0-3.9-1.8-3.9-4c0-2.2,1.8-4,3.9-4C28,114.3,29.7,116.1,29.7,118.3"/>
		<path class="style3-3" d="M41.8,118.3c0,2.2-1.8,4-3.9,4c-2.2,0-3.9-1.8-3.9-4c0-2.2,1.8-4,3.9-4C40,114.3,41.8,116.1,41.8,118.3"/>
		<path class="style3-3" d="M53.8,118.3c0,2.2-1.8,4-3.9,4s-3.9-1.8-3.9-4c0-2.2,1.8-4,3.9-4S53.8,116.1,53.8,118.3"/>
		<path class="style3-3" d="M65.8,118.3c0,2.2-1.8,4-3.9,4c-2.2,0-3.9-1.8-3.9-4c0-2.2,1.8-4,3.9-4C64,114.3,65.8,116.1,65.8,118.3"/>
		<path class="style3-3" d="M77.8,118.3c0,2.2-1.8,4-3.9,4c-2.2,0-3.9-1.8-3.9-4c0-2.2,1.8-4,3.9-4C76.1,114.3,77.8,116.1,77.8,118.3"/>
		<path class="style3-3" d="M89.9,118.3c0,2.2-1.8,4-3.9,4s-3.9-1.8-3.9-4c0-2.2,1.8-4,3.9-4S89.9,116.1,89.9,118.3"/>
		<path class="style3-3" d="M101.9,118.3c0,2.2-1.8,4-3.9,4s-3.9-1.8-3.9-4c0-2.2,1.8-4,3.9-4S101.9,116.1,101.9,118.3"/>
		<path class="style3-3" d="M113.9,118.3c0,2.2-1.8,4-3.9,4c-2.2,0-3.9-1.8-3.9-4c0-2.2,1.8-4,3.9-4C112.1,114.3,113.9,116.1,113.9,118.3
			"/>
		<path class="style3-3" d="M125.9,118.3c0,2.2-1.8,4-3.9,4c-2.2,0-3.9-1.8-3.9-4c0-2.2,1.8-4,3.9-4C124.2,114.3,125.9,116.1,125.9,118.3
			"/>
	</g>
</g>
</svg>
