<?xml version="1.0" encoding="utf-8"?>
<!-- Generator: Adobe Illustrator 21.1.0, SVG Export Plug-In . SVG Version: 6.00 Build 0)  -->
<svg version="1.1" id="Layer_1" xmlns="http://www.w3.org/2000/svg" xmlns:xlink="http://www.w3.org/1999/xlink" x="0px" y="0px"
	 viewBox="0 0 598.8 438.1" style="enable-background:new 0 0 598.8 438.1;" xml:space="preserve">
<style type="text/css">
	.st0{opacity:0.1;fill:none;stroke:url(#gradient_copy_1_);stroke-width:2;enable-background:new    ;}
	.st1{opacity:0.4;fill:none;stroke:url(#gradient_copy_3_1_);stroke-width:2;enable-background:new    ;}
	.st2{fill:none;stroke:url(#gradient_copy_2_1_);stroke-width:2;}
</style>
<linearGradient id="gradient_copy_1_" gradientUnits="userSpaceOnUse" x1="857.471" y1="-163.781" x2="857.471" y2="272.281" gradientTransform="matrix(1 0 0 -1 -558.031 273.281)">
	<stop  offset="0" style="stop-color:#1E14A8"/>
	<stop  offset="1" style="stop-color:#DB285E"/>
</linearGradient>
<path id="gradient_copy" class="st0" d="M89.2,99.4c91.7-58.5,268.7-158.7,393.6-50s152.9,210.9,59.9,290.5s-338,154.9-464.1,33.2
	S-2.4,157.9,89.2,99.4z"/>
<linearGradient id="gradient_copy_3_1_" gradientUnits="userSpaceOnUse" x1="874.065" y1="-163.7838" x2="874.065" y2="248.0602" gradientTransform="matrix(1 0 0 -1 -574.625 261.188)">
	<stop  offset="0" style="stop-color:#1E14A8"/>
	<stop  offset="1" style="stop-color:#DB285E"/>
</linearGradient>
<path id="gradient_copy_3" class="st1" d="M100.9,106c86.6-55.2,253.7-149.9,371.8-47.2S617.1,258,529.3,333.2S210,479.5,90.9,364.5
	S14.3,161.3,100.9,106z"/>
<linearGradient id="gradient_copy_2_1_" gradientUnits="userSpaceOnUse" x1="887.471" y1="-163.7834" x2="887.471" y2="228.4666" gradientTransform="matrix(1 0 0 -1 -588.031 251.375)">
	<stop  offset="0" style="stop-color:#1E14A8"/>
	<stop  offset="1" style="stop-color:#DB285E"/>
</linearGradient>
<path id="gradient_copy_2" class="st2" d="M110.4,111.4c82.5-52.6,241.7-142.7,354.1-45S602,256.2,518.3,327.8
	s-304.1,139.4-417.4,29.8S27.9,164,110.4,111.4z"/>
</svg>
