<svg 
 xmlns="http://www.w3.org/2000/svg"
 xmlns:xlink="http://www.w3.org/1999/xlink"
 width="279px" height="187px" viewBox='0 0 279 187'>
<path fill-rule="evenodd"  stroke="rgb(160, 160, 160)" stroke-width="2px" stroke-linecap="butt" stroke-linejoin="miter" opacity="0.102" fill="none"
 d="M276.423,180.372 L153.923,180.372 L153.923,147.872 L211.923,86.623 C223.673,73.872 228.673,67.373 228.673,59.623 C228.673,50.873 222.923,45.122 213.173,45.122 C202.923,45.122 194.923,51.123 189.673,63.373 L151.173,41.873 C162.423,15.622 185.923,1.622 212.673,1.622 C229.423,1.622 243.673,6.623 255.423,16.622 C267.423,26.373 273.423,39.872 273.423,57.123 C273.423,77.372 263.673,93.372 245.423,112.373 L221.673,137.122 L276.423,137.122 L276.423,180.372 ZM73.675,184.122 C50.925,184.122 32.925,175.872 20.175,159.372 C7.425,142.623 1.175,120.622 1.175,92.873 C1.175,65.122 7.425,43.123 20.175,26.622 C32.925,9.872 50.925,1.622 73.675,1.622 C96.425,1.622 114.175,9.872 126.925,26.622 C139.675,43.123 146.175,65.122 146.175,92.873 C146.175,120.622 139.675,142.623 126.925,159.372 C114.175,175.872 96.425,184.122 73.675,184.122 ZM73.675,45.122 C55.175,45.122 45.925,61.122 45.925,92.873 C45.925,124.623 55.175,140.622 73.675,140.622 C92.175,140.622 101.425,124.623 101.425,92.873 C101.425,61.122 92.175,45.122 73.675,45.122 Z"/>
</svg>