<svg 
 xmlns="http://www.w3.org/2000/svg"
 xmlns:xlink="http://www.w3.org/1999/xlink"
 width="279px" height="186px" viewBox='0 0 279 186'>
<path fill-rule="evenodd"  stroke="rgb(160, 160, 160)" stroke-width="2px" stroke-linecap="butt" stroke-linejoin="miter" opacity="0.102" fill="none"
 d="M276.688,124.843 C276.688,143.594 270.438,158.094 258.188,168.344 C245.938,178.594 230.688,183.593 212.438,183.593 C183.438,183.593 159.438,170.095 149.438,144.094 L188.438,121.845 C192.188,134.094 200.188,140.093 212.438,140.093 C225.188,140.093 232.188,133.594 232.188,123.594 C232.188,113.594 225.188,107.344 212.438,107.344 L202.938,107.344 L185.688,81.843 L213.688,47.594 L154.938,47.594 L154.938,4.844 L268.688,4.844 L268.688,40.093 L239.438,76.094 C261.688,83.094 276.688,100.844 276.688,124.843 ZM73.689,183.593 C50.939,183.593 32.939,175.344 20.189,158.843 C7.439,142.094 1.189,120.094 1.189,92.344 C1.189,64.594 7.439,42.594 20.189,26.094 C32.939,9.344 50.939,1.094 73.689,1.094 C96.439,1.094 114.189,9.344 126.939,26.094 C139.689,42.594 146.189,64.594 146.189,92.344 C146.189,120.094 139.689,142.094 126.939,158.843 C114.189,175.344 96.439,183.593 73.689,183.593 ZM73.689,44.593 C55.189,44.593 45.939,60.594 45.939,92.344 C45.939,124.094 55.189,140.093 73.689,140.093 C92.189,140.093 101.439,124.094 101.439,92.344 C101.439,60.594 92.189,44.593 73.689,44.593 Z"/>
</svg>