<svg 
 xmlns="http://www.w3.org/2000/svg"
 xmlns:xlink="http://www.w3.org/1999/xlink"
 width="299px" height="187px" viewBox='0 0 299 187'>
<path fill-rule="evenodd"  stroke="rgb(160, 160, 160)" stroke-width="2px" stroke-linecap="butt" stroke-linejoin="miter" opacity="0.102" fill="none"
 d="M278.647,153.640 L278.647,180.391 L234.147,180.391 L234.147,153.640 L157.397,153.640 L157.397,112.891 L209.647,5.392 L259.147,5.392 L206.397,112.891 L234.147,112.891 L234.147,81.392 L278.647,81.392 L278.647,112.891 L296.147,112.891 L296.147,153.640 L278.647,153.640 ZM73.653,184.141 C50.903,184.141 32.903,175.891 20.153,159.392 C7.403,142.641 1.153,120.641 1.153,92.892 C1.153,65.141 7.403,43.142 20.153,26.642 C32.903,9.891 50.903,1.642 73.653,1.642 C96.403,1.642 114.153,9.891 126.903,26.642 C139.653,43.142 146.153,65.141 146.153,92.892 C146.153,120.641 139.653,142.641 126.903,159.392 C114.153,175.891 96.403,184.141 73.653,184.141 ZM73.653,45.142 C55.153,45.142 45.903,61.141 45.903,92.892 C45.903,124.641 55.153,140.642 73.653,140.642 C92.153,140.642 101.403,124.641 101.403,92.892 C101.403,61.141 92.153,45.142 73.653,45.142 Z"/>
</svg>