<svg 
 xmlns="http://www.w3.org/2000/svg"
 xmlns:xlink="http://www.w3.org/1999/xlink"
 width="286px" height="187px" viewBox='0 0 286 187'>
<path fill-rule="evenodd"  stroke="rgb(160, 160, 160)" stroke-width="2px" stroke-linecap="butt" stroke-linejoin="miter" opacity="0.102" fill="none"
 d="M211.478,67.070 L223.978,67.070 C241.228,67.070 255.478,72.070 266.728,82.070 C278.228,92.071 283.978,106.320 283.978,124.571 C283.978,143.570 277.728,158.320 265.478,168.821 C253.228,179.071 237.728,184.321 219.478,184.321 C188.728,184.321 164.978,171.071 154.728,144.821 L193.728,122.571 C197.478,134.820 205.978,140.821 219.478,140.821 C232.228,140.821 239.228,134.570 239.228,124.571 C239.228,114.321 231.978,108.320 220.228,108.320 L164.228,108.320 L171.478,5.570 L274.478,5.570 L274.478,48.320 L212.728,48.320 L211.478,67.070 ZM73.978,184.321 C51.228,184.321 33.228,176.071 20.478,159.570 C7.728,142.821 1.478,120.821 1.478,93.071 C1.478,65.320 7.728,43.320 20.478,26.820 C33.228,10.070 51.228,1.820 73.978,1.820 C96.728,1.820 114.478,10.070 127.228,26.820 C139.978,43.320 146.478,65.320 146.478,93.071 C146.478,120.821 139.978,142.821 127.228,159.570 C114.478,176.071 96.728,184.321 73.978,184.321 ZM73.978,45.320 C55.478,45.320 46.228,61.320 46.228,93.071 C46.228,124.820 55.478,140.821 73.978,140.821 C92.478,140.821 101.728,124.820 101.728,93.071 C101.728,61.320 92.478,45.320 73.978,45.320 Z"/>
</svg>