<svg 
 xmlns="http://www.w3.org/2000/svg"
 xmlns:xlink="http://www.w3.org/1999/xlink"
 width="293px" height="187px" viewBox='0 0 293 187'>
<path fill-rule="evenodd"  stroke="rgb(160, 160, 160)" stroke-width="2px" stroke-linecap="butt" stroke-linejoin="miter" opacity="0.102" fill="none"
 d="M275.474,81.320 C285.724,92.321 290.724,106.071 290.724,122.570 C290.724,140.820 284.724,155.570 272.474,167.071 C260.224,178.570 244.224,184.320 224.474,184.320 C204.724,184.320 188.724,178.570 176.474,167.071 C164.224,155.570 158.224,140.820 158.224,122.570 C158.224,108.820 161.974,96.821 169.224,86.319 L220.974,5.570 L271.724,5.570 L234.724,61.320 C251.724,63.571 265.224,70.071 275.474,81.320 ZM239.974,107.071 C235.974,103.320 230.724,101.570 224.474,101.570 C218.224,101.570 212.974,103.320 208.974,107.071 C204.974,110.821 202.974,115.821 202.974,122.570 C202.974,135.821 211.724,143.319 224.474,143.319 C236.724,143.319 245.974,135.570 245.974,122.570 C245.974,115.821 243.974,110.821 239.974,107.071 ZM74.479,184.320 C51.729,184.320 33.729,176.071 20.979,159.571 C8.229,142.820 1.979,120.821 1.979,93.070 C1.979,65.320 8.229,43.321 20.979,26.819 C33.729,10.071 51.729,1.820 74.479,1.820 C97.229,1.820 114.979,10.071 127.729,26.819 C140.479,43.321 146.979,65.320 146.979,93.070 C146.979,120.821 140.479,142.820 127.729,159.571 C114.979,176.071 97.229,184.320 74.479,184.320 ZM74.479,45.320 C55.979,45.320 46.729,61.320 46.729,93.070 C46.729,124.820 55.979,140.820 74.479,140.820 C92.979,140.820 102.229,124.820 102.229,93.070 C102.229,61.320 92.979,45.320 74.479,45.320 Z"/>
</svg>