<svg 
 xmlns="http://www.w3.org/2000/svg"
 xmlns:xlink="http://www.w3.org/1999/xlink"
 width="24px" height="24px" viewBox='0 0 24 24'>
<path fill-rule="evenodd"
 d="M7.000,5.000 C8.105,5.000 9.000,5.895 9.000,7.000 C9.000,8.105 8.105,9.000 7.000,9.000 C5.895,9.000 5.000,8.105 5.000,7.000 C5.000,5.895 5.895,5.000 7.000,5.000 Z"/>
<path fill-rule="evenodd"
 d="M12.000,10.000 C13.105,10.000 14.000,10.896 14.000,12.000 C14.000,13.105 13.105,14.000 12.000,14.000 C10.895,14.000 10.000,13.105 10.000,12.000 C10.000,10.896 10.895,10.000 12.000,10.000 Z"/>
<path fill-rule="evenodd"
 d="M17.000,15.000 C18.105,15.000 19.000,15.895 19.000,17.000 C19.000,18.104 18.105,19.000 17.000,19.000 C15.895,19.000 15.000,18.104 15.000,17.000 C15.000,15.895 15.895,15.000 17.000,15.000 Z"/>
<path fill-rule="evenodd"
 d="M17.000,5.000 C18.105,5.000 19.000,5.895 19.000,7.000 C19.000,8.105 18.105,9.000 17.000,9.000 C15.895,9.000 15.000,8.105 15.000,7.000 C15.000,5.895 15.895,5.000 17.000,5.000 Z"/>
<path fill-rule="evenodd"
 d="M7.000,15.000 C8.105,15.000 9.000,15.895 9.000,17.000 C9.000,18.104 8.105,19.000 7.000,19.000 C5.895,19.000 5.000,18.104 5.000,17.000 C5.000,15.895 5.895,15.000 7.000,15.000 Z"/>
<path fill-rule="evenodd"
 d="M2.000,20.000 C3.105,20.000 4.000,20.895 4.000,22.000 C4.000,23.105 3.105,24.000 2.000,24.000 C0.895,24.000 -0.000,23.105 -0.000,22.000 C-0.000,20.895 0.895,20.000 2.000,20.000 Z"/>
<path fill-rule="evenodd"
 d="M22.000,20.000 C23.105,20.000 24.000,20.895 24.000,22.000 C24.000,23.105 23.105,24.000 22.000,24.000 C20.895,24.000 20.000,23.105 20.000,22.000 C20.000,20.895 20.895,20.000 22.000,20.000 Z"/>
<path fill-rule="evenodd"
 d="M22.000,-0.000 C23.105,-0.000 24.000,0.895 24.000,2.000 C24.000,3.104 23.105,4.000 22.000,4.000 C20.895,4.000 20.000,3.104 20.000,2.000 C20.000,0.895 20.895,-0.000 22.000,-0.000 Z"/>
<path fill-rule="evenodd"
 d="M2.000,-0.000 C3.105,-0.000 4.000,0.895 4.000,2.000 C4.000,3.104 3.105,4.000 2.000,4.000 C0.895,4.000 -0.000,3.104 -0.000,2.000 C-0.000,0.895 0.895,-0.000 2.000,-0.000 Z"/>
</svg>