<?xml version="1.0" encoding="utf-8"?>
<!-- Generator: Adobe Illustrator 21.1.0, SVG Export Plug-In . SVG Version: 6.00 Build 0)  -->
<svg version="1.1" xmlns="http://www.w3.org/2000/svg" xmlns:xlink="http://www.w3.org/1999/xlink" x="0px" y="0px"
	 viewBox="0 0 512 512" style="enable-background:new 0 0 512 512;" xml:space="preserve">
<style type="text/css">
	.st0{fill:#DB285E;}
	.st1{fill:#FFFFFF;}
</style>
<g id="Layer_1">
	<circle cx="256.5" cy="256.5" r="256"/>
</g>
<g id="Layer_2">
	<path class="st1" d="M354.4,122.5H158.6c-19.9,0-36.1,16.2-36.1,36.1v195.8c0,19.9,16.2,36.1,36.1,36.1h96.6l0.2-95.8h-24.9
		c-3.2,0-5.9-2.6-5.9-5.8l-0.1-30.9c0-3.2,2.6-5.9,5.9-5.9h24.8v-29.8c0-34.6,21.1-53.5,52-53.5h25.3c3.2,0,5.9,2.6,5.9,5.9v26
		c0,3.2-2.6,5.9-5.9,5.9l-15.6,0c-16.8,0-20,8-20,19.7v25.8h36.9c3.5,0,6.2,3.1,5.8,6.6l-3.7,30.9c-0.3,3-2.9,5.2-5.8,5.2h-33.1
		l-0.2,95.8h57.5c19.9,0,36.1-16.2,36.1-36.1V158.6C390.5,138.7,374.3,122.5,354.4,122.5L354.4,122.5z"/>
</g>
</svg>
