<?xml version="1.0" encoding="utf-8"?>
<!-- Generator: Adobe Illustrator 21.1.0, SVG Export Plug-In . SVG Version: 6.00 Build 0)  -->
<svg version="1.1" xmlns="http://www.w3.org/2000/svg" xmlns:xlink="http://www.w3.org/1999/xlink" x="0px" y="0px"
	 viewBox="0 0 512 512" style="enable-background:new 0 0 512 512;" xml:space="preserve">
<style type="text/css">
	.st0{fill:#DB285E;}
	.st1{fill:#FFFFFF;}
</style>
<g id="Layer_2">
	<circle class="st0" cx="256.5" cy="256.8" r="256"/>
</g>
<g id="Layer_1">
	<g>
		<path class="st1" d="M323.5,88.6h-136c-55.3,0-100.2,45-100.2,100.2v136c0,55.3,45,100.2,100.2,100.2h136
			c55.3,0,100.2-45,100.2-100.2v-136C423.7,133.5,378.8,88.6,323.5,88.6L323.5,88.6z M389.9,324.8c0,36.7-29.7,66.4-66.4,66.4h-136
			c-36.7,0-66.4-29.7-66.4-66.4v-136c0-36.7,29.7-66.4,66.4-66.4h136c36.7,0,66.4,29.7,66.4,66.4L389.9,324.8L389.9,324.8z"/>
		<path class="st1" d="M255.5,169.8c-48,0-87,39-87,87c0,48,39,87,87,87s87-39,87-87S303.5,169.8,255.5,169.8L255.5,169.8z
			 M255.5,310c-29.4,0-53.2-23.8-53.2-53.2s23.8-53.2,53.2-53.2s53.2,23.8,53.2,53.2C308.7,286.2,284.9,310,255.5,310L255.5,310z"/>
	</g>
</g>
</svg>
