<svg 
 xmlns="http://www.w3.org/2000/svg"
 xmlns:xlink="http://www.w3.org/1999/xlink"
 width="34px" height="14px" viewBox='0 0 34 14'>
<path fill-rule="evenodd"  fill="rgb(255, 255, 255)"
 d="M12.000,0.000 C13.105,0.000 14.000,0.896 14.000,2.000 C14.000,3.105 13.105,4.000 12.000,4.000 C10.895,4.000 10.000,3.105 10.000,2.000 C10.000,0.896 10.895,0.000 12.000,0.000 Z"/>
<path fill-rule="evenodd"  fill="rgb(255, 255, 255)"
 d="M2.000,0.000 C3.105,0.000 4.000,0.896 4.000,2.000 C4.000,3.105 3.105,4.000 2.000,4.000 C0.895,4.000 0.000,3.105 0.000,2.000 C0.000,0.896 0.895,0.000 2.000,0.000 Z"/>
<path fill-rule="evenodd"  fill="rgb(255, 255, 255)"
 d="M22.000,0.000 C23.105,0.000 24.000,0.896 24.000,2.000 C24.000,3.105 23.105,4.000 22.000,4.000 C20.895,4.000 20.000,3.105 20.000,2.000 C20.000,0.896 20.895,0.000 22.000,0.000 Z"/>
<path fill-rule="evenodd"  fill="rgb(255, 255, 255)"
 d="M34.000,2.000 C34.000,3.105 33.105,4.000 32.000,4.000 C30.895,4.000 30.000,3.105 30.000,2.000 C30.000,0.896 30.895,0.000 32.000,0.000 C33.105,0.000 34.000,0.896 34.000,2.000 Z"/>
<path fill-rule="evenodd"  fill="rgb(255, 255, 255)"
 d="M22.000,10.000 C23.105,10.000 24.000,10.895 24.000,12.000 C24.000,13.105 23.105,14.000 22.000,14.000 C20.895,14.000 20.000,13.105 20.000,12.000 C20.000,10.895 20.895,10.000 22.000,10.000 Z"/>
<path fill-rule="evenodd"  fill="rgb(255, 255, 255)"
 d="M12.000,10.000 C13.105,10.000 14.000,10.895 14.000,12.000 C14.000,13.105 13.105,14.000 12.000,14.000 C10.895,14.000 10.000,13.105 10.000,12.000 C10.000,10.895 10.895,10.000 12.000,10.000 Z"/>
<path fill-rule="evenodd"  fill="rgb(255, 255, 255)"
 d="M34.000,12.000 C34.000,13.105 33.105,14.000 32.000,14.000 C30.895,14.000 30.000,13.105 30.000,12.000 C30.000,10.895 30.895,10.000 32.000,10.000 C33.105,10.000 34.000,10.895 34.000,12.000 Z"/>
</svg>