<svg 
 xmlns="http://www.w3.org/2000/svg"
 xmlns:xlink="http://www.w3.org/1999/xlink"
 width="20px" height="20px" viewBox='0 0 20 20'>
<path fill-rule="evenodd"  fill="rgb(255, 255, 255)"
 d="M18.485,4.343 C17.704,5.124 16.438,5.124 15.657,4.343 C14.876,3.562 14.876,2.296 15.657,1.515 C16.438,0.734 17.704,0.734 18.485,1.515 C19.266,2.296 19.266,3.562 18.485,4.343 ZM8.586,11.414 C7.805,10.633 7.805,9.367 8.586,8.586 C9.367,7.805 10.633,7.805 11.414,8.586 C12.195,9.367 12.195,10.633 11.414,11.414 C10.633,12.195 9.367,12.195 8.586,11.414 ZM1.515,18.485 C0.734,17.704 0.734,16.438 1.515,15.657 C2.296,14.876 3.562,14.876 4.343,15.657 C5.124,16.438 5.124,17.704 4.343,18.485 C3.562,19.266 2.296,19.266 1.515,18.485 Z"/>
<path fill-rule="evenodd"  fill="rgb(255, 255, 255)"
 d="M18.485,18.485 C17.704,19.266 16.438,19.266 15.657,18.485 C14.876,17.704 14.876,16.438 15.657,15.657 C16.438,14.876 17.704,14.876 18.485,15.657 C19.266,16.438 19.266,17.704 18.485,18.485 ZM8.586,11.414 C7.805,10.633 7.805,9.367 8.586,8.586 C9.367,7.805 10.633,7.805 11.414,8.586 C12.195,9.367 12.195,10.633 11.414,11.414 C10.633,12.195 9.367,12.195 8.586,11.414 ZM1.515,4.343 C0.734,3.562 0.734,2.296 1.515,1.515 C2.296,0.734 3.562,0.734 4.343,1.515 C5.124,2.296 5.124,3.562 4.343,4.343 C3.562,5.124 2.296,5.124 1.515,4.343 Z"/>
</svg>