<svg 
 xmlns="http://www.w3.org/2000/svg"
 xmlns:xlink="http://www.w3.org/1999/xlink"
 width="9px" height="34px" viewBox='0 0 9 34'>
<path fill-rule="evenodd"  fill="rgb(18, 18, 185)"
 d="M8.000,5.031 L6.969,5.031 L6.000,5.031 L5.031,5.031 L4.000,5.031 L3.000,5.031 L2.000,5.031 L1.000,5.031 L-0.000,5.031 L-0.000,4.000 L1.000,4.000 L1.000,2.969 L2.000,2.969 L2.000,2.000 L3.000,2.000 L3.000,1.000 L4.000,1.000 L4.000,-0.000 L5.031,-0.000 L5.031,1.000 L6.000,1.000 L6.000,2.000 L6.969,2.000 L6.969,2.969 L8.000,2.969 L8.000,4.000 L9.000,4.000 L9.000,5.031 L8.000,5.031 Z"/>
<path fill-rule="evenodd"  fill="rgb(18, 18, 185)"
 d="M3.891,20.000 C5.004,20.000 5.906,20.888 5.906,21.984 C5.906,23.080 5.004,23.969 3.891,23.969 C2.777,23.969 1.875,23.080 1.875,21.984 C1.875,20.888 2.777,20.000 3.891,20.000 Z"/>
<path fill-rule="evenodd"  fill="rgb(18, 18, 185)"
 d="M3.891,10.000 C5.004,10.000 5.906,10.902 5.906,12.016 C5.906,13.129 5.004,14.031 3.891,14.031 C2.777,14.031 1.875,13.129 1.875,12.016 C1.875,10.902 2.777,10.000 3.891,10.000 Z"/>
<path fill-rule="evenodd"  fill="rgb(18, 18, 185)"
 d="M3.891,29.969 C5.004,29.969 5.906,30.871 5.906,31.984 C5.906,33.098 5.004,34.000 3.891,34.000 C2.777,34.000 1.875,33.098 1.875,31.984 C1.875,30.871 2.777,29.969 3.891,29.969 Z"/>
</svg>