<?xml version="1.0" encoding="utf-8"?>
<!-- Generator: Adobe Illustrator 21.1.0, SVG Export Plug-In . SVG Version: 6.00 Build 0)  -->
<svg version="1.1" xmlns="http://www.w3.org/2000/svg" xmlns:xlink="http://www.w3.org/1999/xlink" x="0px" y="0px"
	 viewBox="0 0 512 512" style="enable-background:new 0 0 512 512;" xml:space="preserve">
<style type="text/css">
	.st0{fill:#DB285E;}
	.st1{fill:#FFFFFF;}
</style>
<g id="Layer_1">
	<circle class="st0" cx="256.5" cy="256" r="256"/>
</g>
<g id="Layer_2">
	<path class="st1" d="M416.5,282.6c-5.5-7.6-8.1-17-8.1-26.4c0-0.1,0-0.1,0-0.2c0-83.9-68-152-152-152c-18.4,0-36,3.3-52.2,9.2
		c-8.8,3.2-18.5,3.9-27.5,1.3c-8-2.2-16.5-3.2-25.3-2.6c-37.1,2.6-67,33-68.9,70.1c-0.9,17.7,4.4,34.2,13.9,47.4
		c5.5,7.6,8.1,17,8.1,26.4v0.2c0,83.9,68,152,152,152c18.4,0,36-3.3,52.2-9.2c8.8-3.2,18.5-3.9,27.5-1.3c8,2.3,16.5,3.2,25.3,2.6
		c37.1-2.6,67-33,68.9-70.1C431.4,312.2,426.1,295.8,416.5,282.6L416.5,282.6z M262,228.8c30.6,7.3,76.9,18.3,76.9,69.3
		c0,25.1-12.4,44.3-34.8,54c-16,6.9-34.2,7.8-49.8,7.8c-48.1,0-78.4-37.4-79.7-39c-7.9-9.9-6.2-24.3,3.6-32.1
		c9.9-7.9,24.3-6.2,32.1,3.6c0.1,0.1,18.2,20.9,43.9,21.7c31,1,38-8.2,38.9-16.1c1.1-9.6-7.4-16.6-41.8-24.8
		c-29.1-6.9-73.2-17.4-73.2-64.4c0-14.6,5.9-62.4,82.5-62.4c48.3,0,76.9,38.1,78.1,39.7c7.5,10.2,5.3,24.5-4.9,32
		c-10.1,7.4-24.3,5.3-31.8-4.7c-0.5-0.7-16.9-18.9-41.3-21.2c-18.5-1.8-36.8,4.9-36.8,14.8C224,217.5,229.2,221,262,228.8L262,228.8
		z"/>
</g>
</svg>
