<?xml version="1.0" encoding="utf-8"?>
<!-- Generator: Adobe Illustrator 21.1.0, SVG Export Plug-In . SVG Version: 6.00 Build 0)  -->
<svg version="1.1" xmlns="http://www.w3.org/2000/svg" xmlns:xlink="http://www.w3.org/1999/xlink" x="0px" y="0px"
	 viewBox="0 0 512 512" style="enable-background:new 0 0 512 512;" xml:space="preserve">
<style type="text/css">
	.st0{fill:#DB285E;}
	.st1{fill:#FFFFFF;}
</style>
<g id="Layer_2">
	<circle class="st0" cx="256" cy="256.4" r="256"/>
</g>
<g id="Capa_1">
	<g>
		<path class="st1" d="M308.7,100.7c-5.4-16.6-23.2-25.7-39.9-20.3c-16.6,5.4-25.7,23.2-20.3,39.9l81.8,251.6
			c5.6,15.5,22.4,24.2,38.5,19.6c16.8-4.8,27-22.7,21.7-39.1C390.2,351.7,308.7,100.7,308.7,100.7z"/>
		<path class="st1" d="M182,141.9c-5.4-16.6-23.3-25.7-39.9-20.3c-16.6,5.4-25.7,23.2-20.3,39.9L203.6,413
			c5.6,15.5,22.4,24.2,38.5,19.6c16.8-4.8,27-22.7,21.7-39.1C263.5,392.9,182,141.9,182,141.9z"/>
		<path class="st1" d="M411.6,309.1c16.6-5.4,25.7-23.2,20.3-39.9c-5.4-16.6-23.2-25.7-39.9-20.3l-251.6,81.8
			c-15.5,5.6-24.2,22.4-19.6,38.5c4.8,16.8,22.7,27,39.1,21.7C160.6,390.6,411.6,309.1,411.6,309.1z"/>
		<path class="st1" d="M192.9,380.2c16.4-5.3,37.5-12.2,60.1-19.5c-5.3-16.4-12.2-37.5-19.6-60.1L173.3,320L192.9,380.2z"/>
		<path class="st1" d="M319.6,339c22.7-7.4,43.9-14.2,60.1-19.5c-5.3-16.4-12.2-37.5-19.5-60.2l-60.1,19.5L319.6,339z"/>
		<path class="st1" d="M370.4,182.4c16.6-5.4,25.7-23.2,20.3-39.9s-23.2-25.7-39.9-20.3L99.3,204c-15.5,5.6-24.3,22.4-19.6,38.5
			c4.8,16.8,22.7,27,39.1,21.7C119.4,263.9,370.4,182.4,370.4,182.4z"/>
		<path class="st1" d="M151.7,253.4c16.4-5.3,37.5-12.2,60.2-19.6c-7.4-22.7-14.2-43.8-19.5-60.1l-60.1,19.5L151.7,253.4z"/>
		<path class="st1" d="M278.4,212.3c22.7-7.4,43.9-14.2,60.2-19.5c-7.4-22.7-14.3-43.9-19.5-60.2l-60.2,19.5L278.4,212.3z"/>
	</g>
</g>
</svg>
