<svg version="1.1" xmlns="http://www.w3.org/2000/svg" xmlns:xlink="http://www.w3.org/1999/xlink" x="0px" y="0px"
	 viewBox="0 0 437.3 437.3" style="enable-background:new 0 0 437.3 437.3;" xml:space="preserve">
	<g>
		<g>
			<path d="M432.7,6.8c-4.6-4.6-10.2-5.6-15.4-3.6L72.8,141.5c-5.6,2-9.2,8.2-9.2,13.8s4.6,11.3,10.2,13.3l151,46.6
				l46.6,150.5c1.5,5.6,6.7,9.7,13.3,10.2h0.5c5.6,0,10.8-3.6,13.3-9.2L436.3,22.2C438.3,17,437.3,10.9,432.7,6.8z"/>
		</g>
	</g>
	<circle cx="85.8" cy="226.9" r="20"/>
	<circle cx="45.8" cy="266.9" r="20"/>
	<circle cx="126.3" cy="309.4" r="20"/>
	<circle cx="86.3" cy="349.4" r="20"/>
	<circle cx="46.3" cy="389.4" r="20"/>
	<circle cx="208.3" cy="348.9" r="20"/>
	<circle cx="168.3" cy="388.9" r="20"/>
</svg>
