<?xml version="1.0" encoding="utf-8"?>
<!-- Generator: Adobe Illustrator 21.1.0, SVG Export Plug-In . SVG Version: 6.00 Build 0)  -->
<svg version="1.1" xmlns="http://www.w3.org/2000/svg" xmlns:xlink="http://www.w3.org/1999/xlink" x="0px" y="0px"
	 viewBox="0 0 512 512" style="enable-background:new 0 0 512 512;" xml:space="preserve">
<style type="text/css">
	.st0{fill:#DB285E;}
	.st1{fill:#FFFFFF;}
</style>
<g id="Layer_1">
	<circle class="st0" cx="256.3" cy="256.2" r="256"/>
</g>
<g id="Layer_2">
	<g>
		<path class="st1" d="M422.9,175.6l-0.1-0.4c-8.4-34-46.4-70.5-81.2-78.1l-0.4-0.1c-56.4-10.7-113.5-10.7-169.8,0l-0.4,0.1
			c-34.8,7.6-72.8,44.1-81.2,78.1l-0.1,0.4c-10.4,47.5-10.4,95.7,0,143.2l0.1,0.4c8.1,32.6,43.2,67.4,76.7,77v38
			c0,13.7,16.7,20.5,26.3,10.6l38.5-40c8.3,0.5,16.7,0.7,25,0.7c28.4,0,56.7-2.7,84.9-8.1l0.4-0.1c34.8-7.6,72.8-44.1,81.2-78.1
			l0.1-0.4C433.3,271.3,433.3,223.1,422.9,175.6z M392.5,311.9c-5.6,22.2-34.4,49.8-57.3,54.9c-30,5.7-60.2,8.1-90.3,7.3
			c-0.6,0-1.2,0.2-1.6,0.6c-4.3,4.4-28.1,28.8-28.1,28.8l-29.9,30.7c-2.2,2.3-6,0.7-6-2.4V369c0-1-0.7-1.9-1.8-2.1c0,0,0,0,0,0
			c-22.9-5.1-51.7-32.7-57.3-54.9c-9.4-42.9-9.4-86.5,0-129.4c5.6-22.2,34.4-49.8,57.3-54.9c52.3-10,105.4-10,157.7,0
			c22.9,5.1,51.7,32.7,57.3,54.9C401.8,225.5,401.8,269,392.5,311.9z"/>
		<path class="st1" d="M306.1,341c-3.5-1.1-6.9-1.8-10-3.1c-32.3-13.4-62-30.7-85.5-57.1c-13.4-15.1-23.8-32.1-32.7-50
			c-4.2-8.5-7.7-17.4-11.3-26.2c-3.3-8,1.6-16.3,6.7-22.4c4.8-5.7,10.9-10,17.6-13.2c5.2-2.5,10.3-1.1,14.1,3.4
			c8.2,9.5,15.8,19.6,21.9,30.6c3.8,6.8,2.7,15.1-4.1,19.7c-1.7,1.1-3.2,2.4-4.7,3.7c-1.4,1.1-2.6,2.2-3.6,3.7c-1.7,2.8-1.8,6-0.7,9
			c8.4,23.1,22.6,41,45.8,50.7c3.7,1.5,7.5,3.3,11.7,2.8c7.2-0.8,9.5-8.7,14.5-12.8c4.9-4,11.2-4.1,16.5-0.7
			c5.3,3.4,10.4,6.9,15.5,10.6c5,3.6,10,7.1,14.6,11.1c4.4,3.9,6,9,3.5,14.3c-4.6,9.7-11.2,17.8-20.8,23
			C312.4,339.6,309.2,340,306.1,341C302.6,339.9,309.2,340,306.1,341z"/>
		<path class="st1" d="M256.4,157.8c42.2,1.2,76.9,29.2,84.3,70.9c1.3,7.1,1.7,14.4,2.3,21.6c0.2,3-1.5,5.9-4.8,6
			c-3.4,0-4.9-2.8-5.1-5.8c-0.4-6-0.7-12-1.6-18c-4.4-31.4-29.4-57.5-60.7-63c-4.7-0.8-9.5-1.1-14.3-1.6c-3-0.3-7-0.5-7.6-4.2
			c-0.6-3.1,2.1-5.6,5.1-5.8C254.8,157.8,255.6,157.8,256.4,157.8C298.6,159,255.6,157.8,256.4,157.8z"/>
		<path class="st1" d="M320.6,241c-0.1,0.5-0.1,1.8-0.4,2.9c-1.1,4.2-7.5,4.8-9,0.5c-0.4-1.3-0.5-2.7-0.5-4.1c0-8.9-2-17.9-6.5-25.6
			c-4.6-8-11.7-14.7-20-18.8c-5-2.5-10.5-4-16-4.9c-2.4-0.4-4.8-0.6-7.3-1c-2.9-0.4-4.5-2.3-4.4-5.2c0.1-2.7,2.1-4.7,5.1-4.5
			c9.7,0.5,19,2.6,27.7,7.2c17.5,9.3,27.5,23.9,30.4,43.5c0.1,0.9,0.3,1.8,0.4,2.7C320.3,235.9,320.4,238.1,320.6,241
			C320.5,241.5,320.4,238.1,320.6,241z"/>
		<path class="st1" d="M294.3,239.9c-3.5,0.1-5.4-1.9-5.8-5.1c-0.3-2.3-0.5-4.5-1-6.7c-1.1-4.3-3.4-8.3-7-11
			c-1.7-1.3-3.7-2.2-5.7-2.8c-2.6-0.7-5.3-0.5-7.9-1.2c-2.8-0.7-4.4-3-3.9-5.6c0.4-2.4,2.7-4.3,5.4-4.1c16.4,1.2,28.1,9.6,29.7,28.9
			c0.1,1.4,0.3,2.8,0,4.1C297.6,238.7,295.9,239.8,294.3,239.9C290.8,240,295.9,239.8,294.3,239.9z"/>
	</g>
</g>
</svg>
